<svg xmlns="http://www.w3.org/2000/svg" viewBox="0 0 127 155"><text x="252.675" y="794.123" fill="#e78c00" dy="40.922" font-family="Impact,serif" font-size="103.532" font-weight="400" style="line-height:normal" transform="matrix(.26458 0 0 .26458 -27.706 -136.495)">Brain</text><text x="202.967" y="882.829" fill="#e78c00" dy="35.806" font-family="Impact,serif" font-size="90.59" font-weight="400" style="line-height:normal" transform="matrix(.26458 0 0 .26458 -27.706 -136.495)">Injuries</text><text x="282.617" y="708.182" fill="#e73900" dy="33.249" font-family="Impact,serif" font-size="84.12" font-weight="400" style="line-height:normal" transform="matrix(.26458 0 0 .26458 -27.706 -136.495)">Injury</text><text x="237.958" y="959.535" fill="#e73900" dy="30.691" font-family="Impact,serif" font-size="77.649" font-weight="400" style="line-height:normal" transform="matrix(.26458 0 0 .26458 -27.706 -136.495)">Accidents</text><text x="271.6" y="1024.241" fill="#ff9" dy="25.576" font-family="Impact,serif" font-size="64.707" font-weight="400" style="line-height:normal" transform="matrix(.26458 0 0 .26458 -27.706 -136.495)">Death</text><text x="301.933" y="632.298" fill="#e73900" dy="17.903" font-family="Impact,serif" font-size="45.295" font-weight="400" style="line-height:normal" transform="matrix(.26458 0 0 .26458 -27.706 -136.495)">1.5M</text><text x="146.167" y="788.298" fill="#e78c00" dy="17.903" font-family="Impact,serif" font-size="45.295" font-weight="400" style="line-height:normal" transform="matrix(.26458 0 0 .26458 -27.706 -136.495)">Semi</text><text x="303.725" y="1081.653" fill="#f9e8d8" dy="15.346" font-family="Impact,serif" font-size="38.824" font-weight="400" style="line-height:normal" transform="matrix(.26458 0 0 .26458 -27.706 -136.495)">Traumatic</text><text x="176.508" y="751.653" fill="#e73900" dy="15.346" font-family="Impact,serif" font-size="38.824" font-weight="400" style="line-height:normal" transform="matrix(.26458 0 0 .26458 -27.706 -136.495)">1.2M</text><text x="194.233" y="709.006" fill="#e73900" dy="12.788" font-family="Impact,serif" font-size="32.354" font-weight="400" style="line-height:normal" transform="matrix(.26458 0 0 .26458 -27.706 -136.495)">Car</text><text x="305.158" y="600.358" fill="#e73900" dy="10.23" font-family="Impact,serif" font-size="25.883" font-weight="400" style="line-height:normal" transform="matrix(.26458 0 0 .26458 -27.706 -136.495)">Premise</text><text x="171.35" y="828.358" fill="#e78c00" dy="10.23" font-family="Impact,serif" font-size="25.883" font-weight="400" style="line-height:normal" transform="matrix(.26458 0 0 .26458 -27.706 -136.495)">Spinal</text><text x="437.992" y="660.358" fill="#e73900" dy="10.23" font-family="Impact,serif" font-size="25.883" font-weight="400" style="line-height:normal" transform="matrix(.26458 0 0 .26458 -27.706 -136.495)">Cord</text><text x="483.475" y="756.358" fill="#e73900" dy="10.23" font-family="Impact,serif" font-size="25.883" font-weight="400" style="line-height:normal" transform="matrix(.26458 0 0 .26458 -27.706 -136.495)">1.7M</text><text x="105.017" y="948.358" fill="#f0eb48" dy="10.23" font-family="Impact,serif" font-size="25.883" font-weight="400" style="line-height:normal" transform="matrix(.26458 0 0 .26458 -27.706 -136.495)">Malpractice</text><text x="150.508" y="684.358" fill="#e73900" dy="10.23" font-family="Impact,serif" font-size="25.883" font-weight="400" style="line-height:normal" transform="matrix(.26458 0 0 .26458 -27.706 -136.495)">Medical</text><text x="437.825" y="1008.358" fill="#e73900" dy="10.23" font-family="Impact,serif" font-size="25.883" font-weight="400" style="line-height:normal" transform="matrix(.26458 0 0 .26458 -27.706 -136.495)">Wrongful</text><text x="444.325" y="635.71" fill="#e73900" dy="7.673" font-family="Impact,serif" font-size="19.412" font-weight="400" style="line-height:normal" transform="matrix(.26458 0 0 .26458 -27.706 -136.495)">4.5M</text><text x="493.533" y="779.71" fill="#e73900" dy="7.673" font-family="Impact,serif" font-size="19.412" font-weight="400" style="line-height:normal" transform="matrix(.26458 0 0 .26458 -27.706 -136.495)">1.3M</text><text x="493.833" y="803.71" fill="#e73900" dy="7.673" font-family="Impact,serif" font-size="19.412" font-weight="400" style="line-height:normal" transform="matrix(.26458 0 0 .26458 -27.706 -136.495)">1.4M</text><text x="311.942" y="575.71" fill="#e73900" dy="7.673" font-family="Impact,serif" font-size="19.412" font-weight="400" style="line-height:normal" transform="matrix(.26458 0 0 .26458 -27.706 -136.495)">Product</text><text x="488.667" y="707.71" fill="#e73900" dy="7.673" font-family="Impact,serif" font-size="19.412" font-weight="400" style="line-height:normal" transform="matrix(.26458 0 0 .26458 -27.706 -136.495)">Truck</text><text x="488.65" y="827.71" fill="#e73900" dy="7.673" font-family="Impact,serif" font-size="19.412" font-weight="400" style="line-height:normal" transform="matrix(.26458 0 0 .26458 -27.706 -136.495)">Broken</text><text x="493.425" y="731.71" fill="#e73900" dy="7.673" font-family="Impact,serif" font-size="19.412" font-weight="400" style="line-height:normal" transform="matrix(.26458 0 0 .26458 -27.706 -136.495)">1.9M</text><text x="107.658" y="863.71" fill="#e78c00" dy="7.673" font-family="Impact,serif" font-size="19.412" font-weight="400" style="line-height:normal" transform="matrix(.26458 0 0 .26458 -27.706 -136.495)">Pedestrian</text><text x="166.533" y="659.71" fill="#e73900" dy="7.673" font-family="Impact,serif" font-size="19.412" font-weight="400" style="line-height:normal" transform="matrix(.26458 0 0 .26458 -27.706 -136.495)">Trailer</text><text x="330.133" y="845.064" fill="#e78c00" dy="5.115" font-family="Impact,serif" font-size="12.941" font-weight="400" style="line-height:normal" transform="matrix(.26458 0 0 .26458 -27.706 -136.495)">Driving</text><text x="425.558" y="845.064" fill="#e78c00" dy="5.115" font-family="Impact,serif" font-size="12.941" font-weight="400" style="line-height:normal" transform="matrix(.26458 0 0 .26458 -27.706 -136.495)">Bone</text><text x="471.392" y="845.064" fill="#e78c00" dy="5.115" font-family="Impact,serif" font-size="12.941" font-weight="400" style="line-height:normal" transform="matrix(.26458 0 0 .26458 -27.706 -136.495)">Drunk</text><text x="316.392" y="557.064" fill="#e73900" dy="5.115" font-family="Impact,serif" font-size="12.941" font-weight="400" style="line-height:normal" transform="matrix(.26458 0 0 .26458 -27.706 -136.495)">Confidential</text><text x="186.033" y="641.064" fill="#e73900" dy="5.115" font-family="Impact,serif" font-size="12.941" font-weight="400" style="line-height:normal" transform="matrix(.26458 0 0 .26458 -27.706 -136.495)">Neck</text><text x="318.808" y="749.064" fill="#e7de00" dy="5.115" font-family="Impact,serif" font-size="12.941" font-weight="400" style="line-height:normal" transform="matrix(.26458 0 0 .26458 -27.706 -136.495)">2.2M</text><text x="458.475" y="617.064" fill="#f8dbcc" dy="5.115" font-family="Impact,serif" font-size="12.941" font-weight="400" style="line-height:normal" transform="matrix(.26458 0 0 .26458 -27.706 -136.495)">Semi-Tractor</text><text x="135.167" y="725.064" fill="#e73900" dy="5.115" font-family="Impact,serif" font-size="12.941" font-weight="400" style="line-height:normal" transform="matrix(.26458 0 0 .26458 -27.706 -136.495)">Multiple</text><text x="127.5" y="713.064" fill="#e73900" dy="5.115" font-family="Impact,serif" font-size="12.941" font-weight="400" style="line-height:normal" transform="matrix(.26458 0 0 .26458 -27.706 -136.495)">Orthopedic</text><text x="367.592" y="749.064" fill="#e73900" dy="5.115" font-family="Impact,serif" font-size="12.941" font-weight="400" style="line-height:normal" transform="matrix(.26458 0 0 .26458 -27.706 -136.495)">2.1M</text><text x="510.183" y="881.064" fill="#fbe7da" dy="5.115" font-family="Impact,serif" font-size="12.941" font-weight="400" style="line-height:normal" transform="matrix(.26458 0 0 .26458 -27.706 -136.495)">tractor-trailer</text><text x="146.542" y="701.064" fill="#e73900" dy="5.115" font-family="Impact,serif" font-size="12.941" font-weight="400" style="line-height:normal" transform="matrix(.26458 0 0 .26458 -27.706 -136.495)">spinal</text><text x="172.35" y="629.064" fill="#ff7f7f" dy="5.115" font-family="Impact,serif" font-size="12.941" font-weight="400" style="line-height:normal" transform="matrix(.26458 0 0 .26458 -27.706 -136.495)">injuries</text><text x="313.2" y="664.417" fill="#e78c00" dy="2.558" font-family="Impact,serif" font-size="6.471" font-weight="400" style="line-height:normal" transform="matrix(.26458 0 0 .26458 -27.706 -136.495)">Loss</text><text x="307.742" y="748.417" fill="#e78c00" dy="2.558" font-family="Impact,serif" font-size="6.471" font-weight="400" style="line-height:normal" transform="matrix(.26458 0 0 .26458 -27.706 -136.495)">Lost</text><text x="427.625" y="748.417" fill="#e78c00" dy="2.558" font-family="Impact,serif" font-size="6.471" font-weight="400" style="line-height:normal" transform="matrix(.26458 0 0 .26458 -27.706 -136.495)">eyesight</text><text x="381.267" y="664.417" fill="#e73900" dy="2.558" font-family="Impact,serif" font-size="6.471" font-weight="400" style="line-height:normal" transform="matrix(.26458 0 0 .26458 -27.706 -136.495)">Fingers</text><text x="238.067" y="844.417" fill="#e73900" dy="2.558" font-family="Impact,serif" font-size="6.471" font-weight="400" style="line-height:normal" transform="matrix(.26458 0 0 .26458 -27.706 -136.495)">dislocation</text><text x="285.908" y="652.417" fill="#e73900" dy="2.558" font-family="Impact,serif" font-size="6.471" font-weight="400" style="line-height:normal" transform="matrix(.26458 0 0 .26458 -27.706 -136.495)">Animal</text><text x="397.258" y="652.417" fill="#e73900" dy="2.558" font-family="Impact,serif" font-size="6.471" font-weight="400" style="line-height:normal" transform="matrix(.26458 0 0 .26458 -27.706 -136.495)">1.8M</text><text x="143.45" y="760.417" fill="#e73900" dy="2.558" font-family="Impact,serif" font-size="6.471" font-weight="400" style="line-height:normal" transform="matrix(.26458 0 0 .26458 -27.706 -136.495)">Intenstine</text><text x="287.567" y="640.417" fill="#e73900" dy="2.558" font-family="Impact,serif" font-size="6.471" font-weight="400" style="line-height:normal" transform="matrix(.26458 0 0 .26458 -27.706 -136.495)">Small</text><text x="393.933" y="640.417" fill="#e94610" dy="2.558" font-family="Impact,serif" font-size="6.471" font-weight="400" style="line-height:normal" transform="matrix(.26458 0 0 .26458 -27.706 -136.495)">Severe</text><text x="453" y="604.417" fill="#e73900" dy="2.558" font-family="Impact,serif" font-size="6.471" font-weight="400" style="line-height:normal" transform="matrix(.26458 0 0 .26458 -27.706 -136.495)">Dismemberment</text><text x="271.75" y="736.417" fill="#e73900" dy="2.558" font-family="Impact,serif" font-size="6.471" font-weight="400" style="line-height:normal" transform="matrix(.26458 0 0 .26458 -27.706 -136.495)">1.1M</text><text x="512.792" y="844.417" fill="#e73900" dy="2.558" font-family="Impact,serif" font-size="6.471" font-weight="400" style="line-height:normal" transform="matrix(.26458 0 0 .26458 -27.706 -136.495)">Injuries/Internal</text><text x="286.2" y="628.417" fill="#e73900" dy="2.558" font-family="Impact,serif" font-size="6.471" font-weight="400" style="line-height:normal" transform="matrix(.26458 0 0 .26458 -27.706 -136.495)">Ankles</text><text x="272.333" y="724.417" fill="#e73900" dy="2.558" font-family="Impact,serif" font-size="6.471" font-weight="400" style="line-height:normal" transform="matrix(.26458 0 0 .26458 -27.706 -136.495)">two</text><text x="499.742" y="688.417" fill="#e73900" dy="2.558" font-family="Impact,serif" font-size="6.471" font-weight="400" style="line-height:normal" transform="matrix(.26458 0 0 .26458 -27.706 -136.495)">disorder</text><text x="490.767" y="640.417" fill="#e73900" dy="2.558" font-family="Impact,serif" font-size="6.471" font-weight="400" style="line-height:normal" transform="matrix(.26458 0 0 .26458 -27.706 -136.495)">stress</text><text x="272.783" y="712.417" fill="#e73900" dy="2.558" font-family="Impact,serif" font-size="6.471" font-weight="400" style="line-height:normal" transform="matrix(.26458 0 0 .26458 -27.706 -136.495)">Hip</text><text x="501.283" y="664.417" fill="#e73900" dy="2.558" font-family="Impact,serif" font-size="6.471" font-weight="400" style="line-height:normal" transform="matrix(.26458 0 0 .26458 -27.706 -136.495)">Bicycle</text><text x="144.625" y="748.417" fill="#e73900" dy="2.558" font-family="Impact,serif" font-size="6.471" font-weight="400" style="line-height:normal" transform="matrix(.26458 0 0 .26458 -27.706 -136.495)">Premises</text><text x="504.808" y="676.417" fill="#e73900" dy="2.558" font-family="Impact,serif" font-size="6.471" font-weight="400" style="line-height:normal" transform="matrix(.26458 0 0 .26458 -27.706 -136.495)">Burn</text><text x="144.8" y="736.417" fill="#e73900" dy="2.558" font-family="Impact,serif" font-size="6.471" font-weight="400" style="line-height:normal" transform="matrix(.26458 0 0 .26458 -27.706 -136.495)">fractures</text><text x="542.925" y="790.417" fill="#e73900" dy="2.558" font-family="Impact,serif" font-size="6.471" font-weight="400" style="line-height:normal" transform="matrix(.26458 0 0 .26458 -27.706 -136.495)">leg</text><text x="488.292" y="628.417" fill="#e73900" dy="2.558" font-family="Impact,serif" font-size="6.471" font-weight="400" style="line-height:normal" transform="matrix(.26458 0 0 .26458 -27.706 -136.495)">amputations</text><text x="502.892" y="856.417" fill="#e73900" dy="2.558" font-family="Impact,serif" font-size="6.471" font-weight="400" style="line-height:normal" transform="matrix(.26458 0 0 .26458 -27.706 -136.495)">Abdominal</text><text x="503.292" y="868.417" fill="#e73900" dy="2.558" font-family="Impact,serif" font-size="6.471" font-weight="400" style="line-height:normal" transform="matrix(.26458 0 0 .26458 -27.706 -136.495)">post-traumatic</text><text x="505.233" y="652.417" fill="#e73900" dy="2.558" font-family="Impact,serif" font-size="6.471" font-weight="400" style="line-height:normal" transform="matrix(.26458 0 0 .26458 -27.706 -136.495)">1.6M</text><text x="538.275" y="808.417" fill="#e73900" dy="2.558" font-family="Impact,serif" font-size="6.471" font-weight="400" style="line-height:normal" transform="matrix(.26458 0 0 .26458 -27.706 -136.495)">Partial</text><text x="178.45" y="616.417" fill="#e73900" dy="2.558" font-family="Impact,serif" font-size="6.471" font-weight="400" style="line-height:normal" transform="matrix(.26458 0 0 .26458 -27.706 -136.495)">orthopedic</text><text x="180.858" y="880.417" fill="#e78c00" dy="2.558" font-family="Impact,serif" font-size="6.471" font-weight="400" style="line-height:normal" transform="matrix(.26458 0 0 .26458 -27.706 -136.495)">2.5M</text><text x="307.95" y="544.417" fill="#e73900" dy="2.558" font-family="Impact,serif" font-size="6.471" font-weight="400" style="line-height:normal" transform="matrix(.26458 0 0 .26458 -27.706 -136.495)">Quadriplegic</text><text x="153.458" y="844.417" fill="#e78c00" dy="2.558" font-family="Impact,serif" font-size="6.471" font-weight="400" style="line-height:normal" transform="matrix(.26458 0 0 .26458 -27.706 -136.495)">Tractor</text><text x="348.125" y="544.417" fill="#e73900" dy="2.558" font-family="Impact,serif" font-size="6.471" font-weight="400" style="line-height:normal" transform="matrix(.26458 0 0 .26458 -27.706 -136.495)">explosion</text><text x="466.717" y="592.417" fill="#e73900" dy="2.558" font-family="Impact,serif" font-size="6.471" font-weight="400" style="line-height:normal" transform="matrix(.26458 0 0 .26458 -27.706 -136.495)">Paraplegic</text><text x="505.483" y="892.417" fill="#e73900" dy="2.558" font-family="Impact,serif" font-size="6.471" font-weight="400" style="line-height:normal" transform="matrix(.26458 0 0 .26458 -27.706 -136.495)">collision</text><text x="193.367" y="604.417" fill="#ffbfbf" dy="2.558" font-family="Impact,serif" font-size="6.471" font-weight="400" style="line-height:normal" transform="matrix(.26458 0 0 .26458 -27.706 -136.495)">4.1M</text><text x="454.783" y="928.417" fill="#e7de00" dy="2.558" font-family="Impact,serif" font-size="6.471" font-weight="400" style="line-height:normal" transform="matrix(.26458 0 0 .26458 -27.706 -136.495)">trailer</text><text x="164.317" y="892.417" fill="#e78c00" dy="2.558" font-family="Impact,serif" font-size="6.471" font-weight="400" style="line-height:normal" transform="matrix(.26458 0 0 .26458 -27.706 -136.495)">Semi-tractor</text><text x="134.108" y="826.417" fill="#e73900" dy="2.558" font-family="Impact,serif" font-size="6.471" font-weight="400" style="line-height:normal" transform="matrix(.26458 0 0 .26458 -27.706 -136.495)">elevator</text><text x="215.983" y="928.417" fill="#ff9" dy="2.558" font-family="Impact,serif" font-size="6.471" font-weight="400" style="line-height:normal" transform="matrix(.26458 0 0 .26458 -27.706 -136.495)">Grain</text><text x="133.958" y="682.417" fill="#e73900" dy="2.558" font-family="Impact,serif" font-size="6.471" font-weight="400" style="line-height:normal" transform="matrix(.26458 0 0 .26458 -27.706 -136.495)">12M</text><text x="133.042" y="808.417" fill="#e73900" dy="2.558" font-family="Impact,serif" font-size="6.471" font-weight="400" style="line-height:normal" transform="matrix(.26458 0 0 .26458 -27.706 -136.495)">cord</text><text x="143.525" y="664.417" fill="#e73900" dy="2.558" font-family="Impact,serif" font-size="6.471" font-weight="400" style="line-height:normal" transform="matrix(.26458 0 0 .26458 -27.706 -136.495)">15.8M</text><text x="141.983" y="652.417" fill="#e73900" dy="2.558" font-family="Impact,serif" font-size="6.471" font-weight="400" style="line-height:normal" transform="matrix(.26458 0 0 .26458 -27.706 -136.495)">School</text><text x="271.883" y="700.417" fill="#e73900" dy="2.558" font-family="Impact,serif" font-size="6.471" font-weight="400" style="line-height:normal" transform="matrix(.26458 0 0 .26458 -27.706 -136.495)">Golf</text><text x="156.733" y="640.417" fill="#e73900" dy="2.558" font-family="Impact,serif" font-size="6.471" font-weight="400" style="line-height:normal" transform="matrix(.26458 0 0 .26458 -27.706 -136.495)">9.5M</text><text x="309.95" y="532.417" fill="#e73900" dy="2.558" font-family="Impact,serif" font-size="6.471" font-weight="400" style="line-height:normal" transform="matrix(.26458 0 0 .26458 -27.706 -136.495)">Tetraplegia</text><text x="331.85" y="664.417" fill="#e78c00" dy="2.558" font-family="Impact,serif" font-size="6.471" font-weight="400" style="line-height:normal" transform="matrix(.26458 0 0 .26458 -27.706 -136.495)">10M</text><text x="347.65" y="532.417" fill="#f8cfbf" dy="2.558" font-family="Impact,serif" font-size="6.471" font-weight="400" style="line-height:normal" transform="matrix(.26458 0 0 .26458 -27.706 -136.495)">Tractor-Trailer</text><text x="480.45" y="580.417" fill="#e73900" dy="2.558" font-family="Impact,serif" font-size="6.471" font-weight="400" style="line-height:normal" transform="matrix(.26458 0 0 .26458 -27.706 -136.495)">Fractures</text><text x="110.367" y="790.417" fill="#e73900" dy="2.558" font-family="Impact,serif" font-size="6.471" font-weight="400" style="line-height:normal" transform="matrix(.26458 0 0 .26458 -27.706 -136.495)">damage</text><text x="503.508" y="604.417" fill="#e73900" dy="2.558" font-family="Impact,serif" font-size="6.471" font-weight="400" style="line-height:normal" transform="matrix(.26458 0 0 .26458 -27.706 -136.495)">nerve</text><text x="551.292" y="820.417" fill="#e73900" dy="2.558" font-family="Impact,serif" font-size="6.471" font-weight="400" style="line-height:normal" transform="matrix(.26458 0 0 .26458 -27.706 -136.495)">injury</text><text x="552.667" y="832.417" fill="#f39f80" dy="2.558" font-family="Impact,serif" font-size="6.471" font-weight="400" style="line-height:normal" transform="matrix(.26458 0 0 .26458 -27.706 -136.495)">requiring</text><text x="536.767" y="856.417" fill="#e73900" dy="2.558" font-family="Impact,serif" font-size="6.471" font-weight="400" style="line-height:normal" transform="matrix(.26458 0 0 .26458 -27.706 -136.495)">surgery</text><text x="501.808" y="904.417" fill="#e77900" dy="2.558" font-family="Impact,serif" font-size="6.471" font-weight="400" style="line-height:normal" transform="matrix(.26458 0 0 .26458 -27.706 -136.495)">Amputation</text><text x="166.508" y="904.417" fill="#e78c00" dy="2.558" font-family="Impact,serif" font-size="6.471" font-weight="400" style="line-height:normal" transform="matrix(.26458 0 0 .26458 -27.706 -136.495)">Semi-truck</text><text x="156.975" y="880.417" fill="#e78c00" dy="2.558" font-family="Impact,serif" font-size="6.471" font-weight="400" style="line-height:normal" transform="matrix(.26458 0 0 .26458 -27.706 -136.495)">2.4M</text><text x="157.833" y="922.417" fill="#e7e000" dy="2.558" font-family="Impact,serif" font-size="6.471" font-weight="400" style="line-height:normal" transform="matrix(.26458 0 0 .26458 -27.706 -136.495)">Construction</text><text x="322.833" y="520.417" fill="#e73900" dy="2.558" font-family="Impact,serif" font-size="6.471" font-weight="400" style="line-height:normal" transform="matrix(.26458 0 0 .26458 -27.706 -136.495)">Explosion/Burn</text><text x="127.917" y="844.417" fill="#e73900" dy="2.558" font-family="Impact,serif" font-size="6.471" font-weight="400" style="line-height:normal" transform="matrix(.26458 0 0 .26458 -27.706 -136.495)">Airplane</text><text x="120.883" y="772.417" fill="#e73900" dy="2.558" font-family="Impact,serif" font-size="6.471" font-weight="400" style="line-height:normal" transform="matrix(.26458 0 0 .26458 -27.706 -136.495)">3.4M</text><text x="116.9" y="760.417" fill="#e73900" dy="2.558" font-family="Impact,serif" font-size="6.471" font-weight="400" style="line-height:normal" transform="matrix(.26458 0 0 .26458 -27.706 -136.495)">Serious</text><text x="120.875" y="748.417" fill="#e73900" dy="2.558" font-family="Impact,serif" font-size="6.471" font-weight="400" style="line-height:normal" transform="matrix(.26458 0 0 .26458 -27.706 -136.495)">3.2M</text><text x="116.183" y="736.417" fill="#e73900" dy="2.558" font-family="Impact,serif" font-size="6.471" font-weight="400" style="line-height:normal" transform="matrix(.26458 0 0 .26458 -27.706 -136.495)">Massive</text><text x="140.192" y="628.417" fill="#e73900" dy="2.558" font-family="Impact,serif" font-size="6.471" font-weight="400" style="line-height:normal" transform="matrix(.26458 0 0 .26458 -27.706 -136.495)">Pipeline</text><text x="157.325" y="616.417" fill="#e73900" dy="2.558" font-family="Impact,serif" font-size="6.471" font-weight="400" style="line-height:normal" transform="matrix(.26458 0 0 .26458 -27.706 -136.495)">2.7M</text><text x="164.508" y="604.417" fill="#e73900" dy="2.558" font-family="Impact,serif" font-size="6.471" font-weight="400" style="line-height:normal" transform="matrix(.26458 0 0 .26458 -27.706 -136.495)">Internal</text><text x="181.167" y="592.417" fill="#e73900" dy="2.558" font-family="Impact,serif" font-size="6.471" font-weight="400" style="line-height:normal" transform="matrix(.26458 0 0 .26458 -27.706 -136.495)">Auto</text></svg>