<?xml version="1.0" encoding="UTF-8"?>
<svg width="206mm" height="173mm" version="1.1" viewBox="0 0 206 173" xmlns="http://www.w3.org/2000/svg" xmlns:cc="http://creativecommons.org/ns#" xmlns:dc="http://purl.org/dc/elements/1.1/" xmlns:rdf="http://www.w3.org/1999/02/22-rdf-syntax-ns#">
<metadata>
<rdf:RDF>
<cc:Work rdf:about="">
<dc:format>image/svg+xml</dc:format>
<dc:type rdf:resource="http://purl.org/dc/dcmitype/StillImage"/>
<dc:title/>
</cc:Work>
</rdf:RDF>
</metadata>
<g transform="translate(0,-124)">
<path d="m3.5708 254.33c6.782-1.1904 13.564-2.3808 20.347-3.5713" fill="none" stroke="#f00" stroke-width=".465"/>
<g transform="rotate(-89.212 368.31 321.57)">
<path d="m390.07-38.17 1.7009 71.437v57.83l0.9208 33.957 5.6938 19.432 13.229 4.5357 26.269 7.3705 20.316 0.18899 23.151-8.41 10.843-7.7553 6.7329-10.482s2.0218-6.0171 2.9619-8.9594c0.62229-2.4435 2.1408-8.4275 2.1408-8.4275l3.4963-30.049 2.1734-38.932-2.3624-25.135-7.858-32.385-4.0482-12.5-9.7329-16.158-6.7091-4.1577-7.1815-0.09449-31.278 1.4174-18.444 2.8315-22.188 3.9721z" fill="none" stroke="#f00" stroke-width=".465"/>
</g>
<path d="m21.285 294.69-3.47-10.071-5.5744-22.262-1.6707-9.7124-0.70325-30.574 7.5027-11.966 14.395-16.642 5.8594-3.3274 8.1461-2.0566 16.441-2.4835 8.7954-3.0198 12.388-1.8344 20.054-0.52615 26.357 2.768 6.0706 0.75168 18.279 2.256 5.6191 1.3289 17.674 10.485 13.031 9.6682 6.5419 19.937 6e-3 28.734-7.4418 21.214-17.434 17.127" fill="none" stroke="#f00" stroke-width=".465"/>
<path d="m36.381 294.8l-10.499-20.637-6.7756-12.231s-2.2379-9.6843-2.2379-9.6843l-0.80898-10.963 1.2716-10.37 3.8773-11.012 8.7594-12.977 11.253-9.5553s19.408-7.3544 19.408-7.3544c2.0201-0.4803 4.04-0.96055 6.0744-1.3168 2.0344-0.35628 7.4176-0.96654 11.1-1.552 3.6824-0.58551 6.3682-1.1374 11.492-1.3385 5.1241-0.20111 12.204 0.0475 17.885 0.23852 5.6804 0.19101 9.9605 0.32439 13.687 0.68574 3.7262 0.36135 6.8982 0.95064 10.194 1.4664 3.2956 0.51578 6.714 0.95792 12.44 2.6551 5.7259 1.6971 13.757 4.6488 19.609 7.4484 5.8516 2.7996 9.5222 5.4469 12.321 7.8658 2.7989 2.419 4.7257 4.6094 6.5073 8.4919 1.7816 3.8825 3.4171 9.4555 4.5593 14.319 1.1421 4.8638 1.8658 9.5 1.695 14.4-0.17086 4.8999-1.1986 10.304-3.106 16.511-1.9074 6.2068-4.6942 13.215-7.1554 17.717-2.4612 4.5014-4.5966 6.495-7.6979 8.9505-3.1013 2.4555-7.1684 5.3728-11.236 8.2901" fill="none" stroke="#f00" stroke-width=".465"/>
<path d="m55.351 294.67c-4.976-3.6606-9.4086-6.9214-13.667-10.593s-8.0724-7.5543-10.906-11.879c-2.8335-4.3249-4.6875-9.0929-6.0817-14.447-1.3941-5.3538-2.3287-11.295-2.2715-16.817 0.05712-5.5221 1.1059-10.626 2.9893-15.54 1.8834-4.9136 4.6019-9.6375 6.6909-12.742s3.5489-4.5898 5.009-6.0752c1.46-1.4854 2.9201-2.9706 4.5842-4.5315 1.6641-1.5609 3.5324-3.1974 7.0833-4.6583 3.5509-1.4609 8.7846-2.7461 13.164-3.817 4.3792-1.0708 7.9037-1.9272 13.353-2.4378s12.823-0.67531 20.938-0.51052c8.1147 0.16479 16.97 0.6591 25.913 1.4873 8.9438 0.8282 17.976 1.9902 24.091 3.4049 6.1148 1.4147 9.3119 3.0819 13.098 5.4627 3.7864 2.3808 8.1611 5.4744 11.769 9.2499 3.6075 3.7755 6.4468 8.2319 8.2306 15.22s2.4418 15.592 1.7179 23.726c-0.72391 8.1336-2.8647 15.338-4.8413 20.006s-3.7889 6.7986-5.8391 8.8063c-2.0502 2.0077-4.3381 3.8923-7.8286 6.133-3.4904 2.2407-8.1834 4.8374-12.572 6.5601s-8.4716 2.5714-11.42 3.1296c-2.9483 0.55823-4.7617 0.82605-6.5748 1.0938" fill="none" stroke="#f00" stroke-width=".465"/>
<path d="m154.9 288.59c3.5443-6.1521 7.0885-12.304 9.7607-19.878 2.6722-7.5744 4.4725-16.571 5.1233-24.227s0.15211-13.97-1.5105-18.862c-1.6626-4.8929-4.4891-8.3649-7.329-10.852-2.8399-2.4873-5.6936-3.9903-10.969-6.1105-5.2756-2.1201-12.991-4.8639-20.787-6.7938-7.7957-1.9299-15.688-3.0501-22.642-3.4384-6.9537-0.38833-12.973-0.0453-19.396 0.66478-6.4232 0.71004-13.251 1.7872-19.419 3.6424-6.1676 1.8553-11.697 4.499-15.693 6.7461s-6.47 4.1025-8.8464 7.5826c-2.3764 3.4801-4.6554 8.585-5.7492 14.584s-1.0023 12.893 0.12054 19.296c1.1228 6.4025 3.2769 12.313 6.2427 17.264 2.9658 4.9509 6.7429 8.9413 8.9612 11.154 2.2183 2.2128 2.8776 2.6476 5.9428 4.3271 3.0652 1.6795 8.5313 4.6008 12.656 6.5604 4.1247 1.9596 6.9051 2.9558 9.6861 3.9522" fill="none" stroke="#f00" stroke-width=".465"/>
<path d="m9.1573 292.17c3.4154-0.41872 6.831-0.83747 10.731-1.7047 3.9003-0.86724 8.2846-2.1828 11.968-3.2219 3.6838-1.0391 6.6667-1.8014 9.6499-2.5639" fill="none" stroke="#f00" stroke-width=".465"/>
<path d="m4.9023 262.79c6.5208-1.5514 13.042-3.1028 19.563-4.6543" fill="none" stroke="#f00" stroke-width=".465"/>
<path d="m1.2412 216.86c7.3548 5.0774 14.71 10.155 22.065 15.233" fill="none" stroke="#f00" stroke-width=".465"/>
<path d="m1.5227 208c7.8173 6.2814 15.635 12.563 23.453 18.845" fill="none" stroke="#f00" stroke-width=".465"/>
<path d="m28.627 187.69c2.8287 6.2932 5.6575 12.587 8.4864 18.88" fill="none" stroke="#f00" stroke-width=".465"/>
<path d="m34.625 185.8c1.5565 6.0224 3.1131 12.045 4.6698 18.068" fill="none" stroke="#f00" stroke-width=".465"/>
<path d="m74.552 177.89c0.05876 4.3587 0.11751 8.7162 0.17627 13.075" fill="none" stroke="#f00" stroke-width=".465"/>
<path d="m80.149 177.29c-0.6981 4.5073-1.3962 9.0148-2.0944 13.523" fill="none" stroke="#f00" stroke-width=".465"/>
<path d="m117.51 177.61c-1.7196 4.588-3.4394 9.1762-5.1591 13.764" fill="none" stroke="#f00" stroke-width=".465"/>
<path d="m113.54 177.68c-1.4509 4.6601-2.7914 8.966-4.1873 13.449" fill="none" stroke="#f00" stroke-width=".465"/>
<path d="m164.26 183.73c-3.7306 4.696-7.4874 9.4251-11.231 14.138" fill="none" stroke="#f00" stroke-width=".465"/>
<path d="m169.57 185.24c-4.2971 4.7844-8.5943 9.5688-12.891 14.353" fill="none" stroke="#f00" stroke-width=".465"/>
<path d="m198.98 212.47c-7.9404 0.95489-15.888 1.9106-23.831 2.8658" fill="none" stroke="#f00" stroke-width=".465"/>
<path d="m201.25 219.87c-7.6934 0.68524-15.387 1.3704-23.08 2.0556" fill="none" stroke="#f00" stroke-width=".465"/>
<path d="m204.46 243.93c-7.7084-0.19633-15.416-0.39265-23.124-0.58897" fill="none" stroke="#f00" stroke-width=".465"/>
<path d="m202.93 253.32c-7.3969-1.1385-14.794-2.2769-18.478-2.8459-3.6849-0.56902-3.6584-0.56869-3.6316-0.56835" fill="none" stroke="#f00" stroke-width=".465"/>
<path d="m184.56 291.23c-3.4559-6.0889-6.9117-12.177-10.367-18.266" fill="none" stroke="#f00" stroke-width=".465"/>
<path d="m181.57 291.76c-3.2019-5.1846-6.4035-10.369-9.605-15.553" fill="#ffe680" stroke="#f00" stroke-width=".465"/>
<path d="m88.207 196.27 6.7188-19.454 31.234-0.14326 11.259-51.255-69.323-0.84767-1.9632 49.564 37.316 3.435-5.0044 20.77z" fill="none" stroke="#f00" stroke-width=".465"/>
<path transform="matrix(.26458 0 0 .26458 0 95)" d="m393.79 752.64-88.705-1.3763-14.483-5.8457c-15.837-6.3924-63.624-30.457-75.994-38.27-4.3265-2.7324-12.998-10.39-19.59-17.3-36.158-37.899-52.853-78.75-54.312-132.89-0.85456-31.723 3.2508-54.332 14.05-77.377 12.266-26.174 24.786-37.458 60.845-54.837 46.974-22.639 106.73-33.645 174.83-32.202 49.556 1.0503 91.208 8.6983 142.4 26.147 62.121 21.175 82.549 34.811 96.848 64.649 8.3581 17.441 11.525 33.565 11.525 58.676 0 33.644-9.061 83.643-21.094 116.4-4.7029 12.802-21.189 47.138-29.805 62.076-4.8242 8.3638-5.817 9.3427-13.066 12.883-20.034 9.7837-59.935 19.568-82.671 20.272-6.6378 0.20552-51.986-0.24569-100.77-1.0026z" fill="#0f0" stroke="#f00" stroke-width="2.1211"/>
<path transform="matrix(.26458 0 0 .26458 0 95)" d="m192.9 740.87c-54.323-41.087-76.234-65.639-89.998-100.84-5.4286-13.884-12.233-39.425-12.485-46.866-0.0901-2.6551-0.51847-5.099-0.95194-5.4309-1.6927-1.2961-3.743-30.045-3.0306-42.496 2.3819-41.63 22.893-88.335 52.539-119.63 19.372-20.451 30.021-29.549 40.507-34.604 16.182-7.8013 63.365-20.359 93.011-24.756 12.532-1.8585 65.779-4.2839 65.776-2.9961-6.9e-4 0.32963-1.4246 4.8733-3.1643 10.097-2.2547 6.7704-2.7685 9.7416-1.789 10.347 0.75573 0.46706 6.6596 1.8651 13.12 3.1068l11.746 2.2576-20.517 2.1346c-61.426 6.3908-99.338 16.983-138.79 38.775-18.455 10.194-26.127 16.319-34.344 27.423-24.534 33.149-33.209 85.018-22.911 136.98 7.4874 37.781 24.968 70.657 52.631 98.988 5.1983 5.3237 11.352 11.109 13.675 12.857 8.7757 6.602 61.852 33.995 79.253 40.902 5.1991 2.0639 9.6792 3.9769 9.9558 4.2512 0.27656 0.27421-19.818 0.47837-44.654 0.4537l-45.157-0.0449z" fill="#faa" stroke="#f00" stroke-width="2.1211"/>
<path transform="matrix(.26458 0 0 .26458 0 95)" d="m590.71 725.6c0.22125-0.5055 4.358-8.0801 9.1928-16.832 23.486-42.516 36.999-86.207 42.547-137.57 1.8643-17.257 0.86416-54.523-1.7698-65.946-4.5012-19.519-12.803-34.663-26.614-48.549-11.555-11.617-21.585-17.816-43.878-27.119-58.042-24.22-117.73-37.863-177.31-40.528-10.123-0.45283-18.405-1.3055-18.405-1.8949 0-2.2676 5.207-22.155 6.0472-23.097 1.9946-2.2351 85.727 4.0801 126.71 9.5566 58.497 7.8169 81.168 16.318 116.65 43.739 36.634 28.315 51.179 54.67 57.723 104.59 2.1145 16.131 2.4331 51.849 0.59771 67.013-3.3401 27.595-12.216 58.702-22.443 78.661-4.749 9.2674-7.7681 13.232-17.352 22.789-10.985 10.953-28.882 23.999-45.109 32.881-6.2575 3.4253-7.2262 3.7638-6.5864 2.3021z" fill="#faa" stroke="#f00" stroke-width="2.1211"/>
<path d="m47.259 288.38-38.353 6.483" fill="#999" stroke="#b3b3b3" stroke-width=".465"/>
<path transform="matrix(.26458 0 0 .26458 0 95)" d="m20.808 470.26-14.283-9.9664-0.011556-15.219c-0.00636-8.3703 0.32352-15.091 0.73305-14.934 0.40953 0.15646 9.5702 7.3864 20.357 16.067l19.612 15.782-4.2937 6.8327c-2.3616 3.758-4.8978 7.8864-5.6361 9.1742-0.73828 1.2878-1.5343 2.3164-1.769 2.2859-0.23468-0.0305-6.8539-4.5404-14.709-10.022z" fill="#ffe680" stroke="#b3b3b3" stroke-width="1.4998"/>
<path transform="matrix(.26458 0 0 .26458 0 95)" d="m53.438 492.67c-7.7445-5.3603-14.208-10.34-14.363-11.066-0.39438-1.8434 9.43-17.504 10.7-17.057 0.56687 0.19942 6.397 4.6572 12.956 9.9061l11.925 9.5435-3.0341 8.6317c-1.6687 4.7474-3.2746 8.8919-3.5685 9.21s-6.8708-3.8074-14.615-9.1677z" fill="#ffe680" stroke="#b3b3b3" stroke-width="1.4998"/>
<path transform="matrix(.26458 0 0 .26458 0 95)" d="m78.865 510.33c-4.5555-3.1128-8.2998-5.9538-8.3206-6.3134-0.02076-0.35956 1.3483-4.6663 3.0424-9.5705l3.0802-8.9168 8.0377 6.5461c5.6666 4.615 7.887 6.9348 7.5267 7.8637-0.28105 0.72468-1.4524 4.5584-2.6031 8.5194-1.1506 3.961-2.1795 7.2758-2.2864 7.3664-0.10685 0.0905-3.9215-2.3822-8.4771-5.495z" fill="#ffe680" stroke="#b3b3b3" stroke-width="1.4998"/>
<path transform="matrix(.26458 0 0 .26458 0 95)" d="m70.928 619.26c-1.4788-4.0808-5.5037-24.071-4.9484-24.577 0.68332-0.62265 20.089-4.2266 20.564-3.8191 0.37287 0.31978 4.5045 20.155 4.701 22.569 0.15958 1.9604-0.32545 2.2065-7.9372 4.0273-4.459 1.0666-8.9797 2.1526-10.046 2.4133-1.1692 0.28581-2.0953 0.0422-2.333-0.61376z" fill="#ffe680" stroke="#b3b3b3" stroke-width="1.4998"/>
<path transform="matrix(.26458 0 0 .26458 0 95)" d="m46.24 624.44c-0.24337-1.0988-1.2285-6.606-2.1891-12.238s-1.918-11.029-2.1274-11.992c-0.35069-1.6134 0.34144-1.8709 8.7672-3.2616 5.0314-0.83047 9.7529-1.6789 10.492-1.8854 1.0913-0.30479 1.8773 1.9148 4.1768 11.796 1.5579 6.694 2.9935 12.608 3.1904 13.142 0.22741 0.6166-3.3194 1.8247-9.7238 3.3121-5.545 1.2878-10.546 2.518-11.113 2.7339-0.56705 0.2158-1.2301-0.5066-1.4735-1.6054z" fill="#ffe680" stroke="#b3b3b3" stroke-width="1.4998"/>
<path transform="matrix(.26458 0 0 .26458 0 95)" d="m19.309 631.62c0.0036-0.35202-0.82012-6.6967-1.8306-14.099-1.0105-7.4026-1.5886-13.708-1.2848-14.012 0.91231-0.91231 22.237-4.5267 22.798-3.8641 0.28553 0.33723 1.3845 5.7975 2.4421 12.134 1.0576 6.3364 2.1015 12.308 2.3196 13.269 0.36268 1.5988-0.58149 1.9825-11.026 4.4803-12.128 2.9006-13.429 3.1032-13.418 2.0917z" fill="#f00" stroke="#f00" stroke-width="1.4998"/>
<path transform="matrix(.26458 0 0 .26458 0 95)" d="m32.541 736.58c-0.56789-16.664-1.0238-20.273-7.7352-61.231-3.9224-23.938-9.241-58.692-11.819-77.232l-4.6873-33.709-1.8291-57.158c-1.8437-57.612-1.9789-88.385-0.39544-89.969 0.56895-0.56911 0.85339 1.123 0.85339 5.0766 0 3.2616-0.28802 5.9312-0.64004 5.9324-0.35202 1e-3 -0.64004 7.4906-0.64004 16.643s0.28802 16.641 0.64004 16.64c0.35202-6.4e-4 0.50279 2.2075 0.33503 4.907s0.3222 25.262 1.0888 50.138c1.2627 40.976 1.6413 47.076 4.0261 64.858 1.4477 10.795 2.7093 19.715 2.8034 19.822 0.17458 0.19805 24.76-4.0741 24.883-4.3239 0.03722-0.0755-0.49412-25.483-1.1808-56.461-1.0629-47.955-1.4414-56.546-2.5468-57.817-1.1646-1.3396-1.1601-1.4934 0.04291-1.4934 0.73768 0 1.5349-0.48003 1.7717-1.0667 0.23674-0.5867 0.46076-0.32892 0.49781 0.57285 0.03705 0.90177 0.73942 2.407 1.5608 3.3449 1.4223 1.6241 1.4223 1.6794 0 1.1607-1.351-0.49266-1.4909 0.16522-1.4671 6.8958 0.02064 5.8231 2.3595 103.2 2.4999 104.09 0.01865 0.11734 1.09 0.24367 2.3807 0.28072l2.3468 0.0673-2.3468 0.85714c-1.2908 0.47142-2.3468 1.1778-2.3468 1.5696 0 0.39186-0.25727 1.3829-0.57172 2.2024-0.42077 1.0965-0.27294 1.3052 0.55989 0.79051 0.89199-0.55129 1.0238-0.0348 0.62227 2.4393-0.34584 2.1312-0.21483 2.9566 0.40816 2.5716 0.6077-0.37558 0.78461 0.33834 0.52395 2.1144-0.21645 1.4748-0.03245 2.6814 0.4089 2.6814 0.44135 0 0.63634 1.1318 0.43331 2.5151-0.2203 1.501-0.0336 2.3077 0.46303 2.0008 0.51578-0.31877 0.63852 0.67899 0.32283 2.6244-0.30385 1.8724-0.18544 2.9385 0.2935 2.6425 0.44156-0.2729 0.80872 0.39054 0.81591 1.4743 0.01551 2.3382 0.79763 3.6694 2.5471 4.3353 1.1119 0.42327 1.1064 0.49613-0.04199 0.55465-0.93968 0.0479-1.2815 0.86957-1.1819 2.8409 0.07796 1.543-0.02538 1.8993-0.23291 0.80299-0.20517-1.0838-0.86004-2.1574-1.4553-2.3858-1.2004-0.46063-23.581 4.6125-24.634 5.5839-0.36522 0.33691 2.3946 19.208 6.133 41.935 6.4267 39.071 6.8303 42.311 7.4062 59.457 0.33505 9.974 0.40162 18.135 0.14794 18.135-0.25368 0-0.7328-7.9685-1.0647-17.708zm-10.449-104.03c-0.57777-0.23376-1.7299-0.24798-2.5602-0.0317-0.83032 0.21637-0.3576 0.40763 1.0505 0.42502 1.4081 0.0174 2.0874-0.15963 1.5097-0.3934zm22.42-5.4707c0.90454-1.4636 0.09451-1.6072-1.693-0.30014-1.3843 1.0122-1.4272 1.2103-0.26237 1.2103 0.76606 0 1.646-0.40958 1.9553-0.91017zm-28.059-15.518c-0.23674-0.58671-0.43044-0.10668-0.43044 1.0667 0 1.1734 0.1937 1.6534 0.43044 1.0667 0.23674-0.5867 0.23674-1.5468 0-2.1335zm-0.40322-6.1871c0.19178-1.6428 0.04179-2.9869-0.33333-2.9869-0.37512 0-0.68203 1.3441-0.68203 2.9869s0.15 2.9869 0.33333 2.9869 0.49024-1.3441 0.68203-2.9869zm3.8739-3.5025c-0.28358-0.28357-1.0196-0.31389-1.6357-0.0673-0.68078 0.27242-0.47856 0.47464 0.51559 0.51558 0.89962 0.037 1.4036-0.16464 1.1201-0.44822zm15.361-2.5602c-0.28358-0.28358-1.0196-0.31389-1.6357-0.0673-0.68078 0.27242-0.47856 0.47464 0.51559 0.51559 0.89962 0.037 1.4036-0.16465 1.1201-0.44822zm4.4981-0.3378c0-0.46937-0.67204-0.84751-1.4934-0.84033-1.2763 0.0112-1.3073 0.13335-0.21335 0.84033 1.6105 1.0408 1.7068 1.0408 1.7068 0z" fill="#fd5" stroke="#f00" stroke-width="1.4998"/>
<path transform="matrix(.26458 0 0 .26458 0 95)" d="m78.162 744.32c-0.48366-1.3223-1.0439-2.8737-1.245-3.4476-0.21811-0.62241 0.91124-1.3764 2.7988-1.8685 1.7405-0.45374 5.6607-1.4562 8.7115-2.2277 3.0509-0.77149 11.559-3.0989 18.906-5.172 7.3473-2.0731 13.709-3.7693 14.137-3.7693 0.84603 0 5.8971 10.03 5.2982 10.52-0.20103 0.16471-10.35 1.9239-22.554 3.9093-12.203 1.9854-22.86 3.801-23.681 4.0347-1.0577 0.30107-1.749-0.27574-2.3721-1.9792z" fill="#fd5" stroke="#f00" stroke-width="1.4998"/>
<path transform="matrix(.26458 0 0 .26458 0 95)" d="m34.664 750.35c0-3.4772 0.14243-3.6878 2.7735-4.1005 1.5254-0.23926 9.494-1.4638 17.708-2.7212 8.2139-1.2574 15.916-2.4558 17.116-2.6631 1.889-0.3264 2.3093 0.04 3.1361 2.7339 0.72104 2.3494 0.70932 3.198-0.04789 3.4671-0.55145 0.19597-9.9312 1.8397-20.844 3.6527l-19.841 3.2964z" fill="#fd5" stroke="#f00" stroke-width="1.4998"/>
<path transform="matrix(.26458 0 0 .26458 0 95)" d="m127.72 733.03c-1.4277-2.8282-2.5958-5.4438-2.5958-5.8123s7.2005-2.5638 16.001-4.8783c8.8006-2.3145 16.205-4.5027 16.454-4.8627 0.24927-0.35995 4.1827 2.3705 8.741 6.0677 7.9042 6.411 8.1794 6.7443 5.9472 7.2014-1.2873 0.26363-10.597 1.843-20.688 3.5096-10.091 1.6667-19.004 3.2298-19.806 3.4736-1.1042 0.33573-2.0874-0.80397-4.0536-4.699z" fill="#fd5" stroke="#f00" stroke-width="1.4998"/>
<path transform="matrix(.26458 0 0 .26458 0 95)" d="m115.76 364.03c-1.8352-3.9722-3.8903-8.5472-4.567-10.167l-1.2303-2.9446 8.6634-2.6517c4.7649-1.4584 9.2749-2.8863 10.022-3.1731 1.1058-0.42432 1.7052 0.87816 3.2183 6.9923 1.0227 4.1326 2.048 8.1448 2.2785 8.916 0.39282 1.3144-0.92253 2.2172-14.384 9.8718-0.36566 0.20793-2.1663-2.8719-4.0015-6.8441z" fill="#fd5" stroke="#f00" stroke-width="1.4998"/>
<path transform="matrix(.26458 0 0 .26458 0 95)" d="m132.94 402.08c-1.2983-2.4518-12.12-26.774-12.324-27.7-0.10273-0.46494 3.0774-2.7311 7.067-5.036 6.4088-3.7025 7.3252-4.0172 7.8666-2.7019 0.337 0.8188 2.1988 7.7807 4.1373 15.471l3.5246 13.982-2.4306 2.029c-6.3673 5.3153-6.9618 5.6152-7.8406 3.9556z" fill="#fd5" stroke="#f00" stroke-width="1.4998"/>
<path transform="matrix(.26458 0 0 .26458 0 95)" d="m137.9 413.31c-1.4649-3.258-2.7299-6.1438-2.8111-6.413-0.28565-0.94731 8.1986-7.7194 8.8111-7.0329 0.34115 0.38234 1.2708 3.3561 2.0658 6.6084l1.4456 5.9133-3.4239 3.4239-3.424 3.424z" fill="#fd5" stroke="#f00" stroke-width="1.4998"/>
<path transform="matrix(.26458 0 0 .26458 0 95)" d="m283 320.98v-6.7981l5.2455-0.54827c2.885-0.30155 6.955-0.54827 9.0444-0.54827h3.7989l-0.58662 5.3337c-0.32703 2.9733-1.1259 5.7577-1.8052 6.2918-0.67021 0.52699-3.6122 1.2226-6.5376 1.5457s-6.1831 0.79766-7.2392 1.0545c-1.8696 0.45468-1.9201 0.28817-1.9201-6.3311z" fill="#fd5" stroke="#f00" stroke-width="1.4998"/>
<path transform="matrix(.26458 0 0 .26458 0 95)" d="m283.56 344.21c-0.30569-2.2302-0.5558-6.2882-0.5558-9.0176 0-4.9373 0.0142-4.9649 2.7735-5.414 1.5254-0.2483 5.0467-0.84073 7.825-1.3165 2.7783-0.47577 5.1293-0.77005 5.2244-0.65395 0.64667 0.78957-2.7025 18.581-3.5597 18.91-0.57963 0.22242-3.3259 0.66146-6.1028 0.97562l-5.0489 0.57122z" fill="#fd5" stroke="#f00" stroke-width="1.4998"/>
<path transform="matrix(.26458 0 0 .26458 0 95)" d="m283.85 356.34v-5.3895l6.0017-0.82952 6.0017-0.82953-0.42234 2.1654c-0.23228 1.191-0.67249 3.9895-0.97825 6.219l-0.55591 4.0536h-10.047z" fill="#fd5" stroke="#f00" stroke-width="1.4998"/>
<path transform="matrix(.26458 0 0 .26458 0 95)" d="m431.7 325.25c-4.9514-0.3372-5.0173-0.4604-3.31-6.1897l1.1443-3.8403 4.9342-0.25945c7.3198-0.38488 7.4712-0.22696 5.259 5.4842-2.0986 5.4179-1.7852 5.2303-8.0275 4.8052z" fill="#fd5" stroke="#f00" stroke-width="1.4998"/>
<path transform="matrix(.26458 0 0 .26458 0 95)" d="m421.22 343.17c-0.0187-0.35202 1.0374-4.1534 2.3468-8.4476l2.3808-7.8076 4.6936 0.44867c2.5815 0.24676 4.9675 0.69295 5.3021 0.99153s-0.62541 3.8953-2.1335 7.9928l-2.742 7.4499-4.907 6e-3c-2.6988 3e-3 -4.9223-0.28183-4.9409-0.63386z" fill="#fd5" stroke="#f00" stroke-width="1.4998"/>
<path transform="matrix(.26458 0 0 .26458 0 95)" d="m415.28 362.07c0-0.33167 1.0195-4 2.2655-8.1518l2.2655-7.5488h5.0459c5.7474 0 5.5888-0.90999 1.6365 9.3873l-2.4566 6.4004-4.3783 0.25795c-2.4081 0.14187-4.3783-0.0134-4.3783-0.34508z" fill="#fd5" stroke="#f00" stroke-width="1.4998"/>
<path transform="matrix(.26458 0 0 .26458 0 95)" d="m616.56 355.01-6.5156-3.9827 5.0901-6.3804c2.7996-3.5092 5.3532-6.6548 5.6747-6.9902 0.50199-0.52367 16.172 3.2308 17.11 4.0994 0.18465 0.17108-2.3115 3.2453-5.547 6.8316-3.2355 3.5863-6.6508 7.3946-7.5895 8.4629l-1.7068 1.9424z" fill="#fd5" stroke="#f00" stroke-width="1.4998"/>
<path transform="matrix(.26458 0 0 .26458 0 95)" d="m595.34 379.9c-3.0509-1.2261-5.6725-2.3249-5.8258-2.4418-0.15335-0.11694 4.0145-5.6368 9.262-12.266l9.5408-12.054 3.9656 2.3246c2.1811 1.2785 5.019 2.9239 6.3066 3.6564 1.2875 0.73252 2.2297 1.6736 2.0937 2.0912-0.4683 1.4382-18.09 20.882-18.942 20.9-0.46937 0.0103-3.3496-0.98442-6.4004-2.2105z" fill="#fd5" stroke="#f00" stroke-width="1.4998"/>
<path transform="matrix(.26458 0 0 .26458 0 95)" d="m587.23 390.59c-2.8162-1.4356-5.2684-2.7443-5.4493-2.9082-0.34172-0.30953 1.2099-2.7204 4.0117-6.2333l1.6285-2.0418 6.0916 2.39c3.3504 1.3145 6.0769 2.6173 6.0588 2.8952-0.018 0.27787-1.6501 2.3059-3.6269 4.5068l-3.5941 4.0015z" fill="#fd5" stroke="#f00" stroke-width="1.4998"/>
<path transform="matrix(.26458 0 0 .26458 0 95)" d="m736.59 471.69c-0.23779-0.63521-2.1214-6.2049-4.1858-12.377l-3.7535-11.222 8.659-1.0406c4.7625-0.57235 9.6057-1.0907 10.763-1.1519 1.9594-0.10366 2.4032 0.73748 6.4703 12.263l4.3666 12.374-4.2554 0.5629c-11.797 1.5605-17.63 1.7517-18.064 0.59203z" fill="#fd5" stroke="#f00" stroke-width="1.4998"/>
<path transform="matrix(.26458 0 0 .26458 0 95)" d="m694.77 466.91c-1.768-5.0457-3.7459-10.221-4.3952-11.502-1.1036-2.1757-1.0545-2.3546 0.75148-2.7415 2.7723-0.59387 31.001-3.8916 33.313-3.8916 1.7358 0 2.3556 1.257 5.9156 11.997 2.7051 8.1606 3.6542 12.093 2.9682 12.298-1.0537 0.31527-31.562 3.0267-33.961 3.0184-0.9811-3e-3 -2.3015-2.6428-4.5917-9.1787z" fill="#fd5" stroke="#f00" stroke-width="1.4998"/>
<path transform="matrix(.26458 0 0 .26458 0 95)" d="m672.2 472.05c-1.5158-3.6473-3.8765-8.6417-5.2461-11.099-1.3696-2.4571-2.4902-4.622-2.4902-4.811s3.9363-0.79413 8.7472-1.3448c4.811-0.55063 9.7869-1.1968 11.058-1.4359 2.0255-0.38115 2.4826-0.0328 3.7074 2.8253 1.9955 4.6567 7.2098 19.001 7.2098 19.834 0 0.38562-3.9363 0.96444-8.7473 1.2863-4.811 0.32184-9.3627 0.76326-10.115 0.98093-1.0303 0.29813-2.0476-1.2403-4.1236-6.2356z" fill="#fd5" stroke="#f00" stroke-width="1.4998"/>
<path transform="matrix(.26458 0 0 .26458 0 95)" d="m696.2 586.18c-5.3086-0.84089-9.868-1.745-10.132-2.0091-0.26414-0.26414-0.2024-5.2974 0.13718-11.185l0.61743-10.705h22.87l-0.0166 3.6269c-9e-3 1.9948-0.57298 7.4672-1.253 12.161s-1.2486 8.8219-1.2635 9.174c-0.0149 0.35203-0.31508 0.60094-0.6671 0.55313-0.35202-0.0478-4.9834-0.77491-10.292-1.6158z" fill="#fd5" stroke="#f00" stroke-width="1.4998"/>
<path transform="matrix(.26458 0 0 .26458 0 95)" d="m725.7 590.47c-8.3286-1.2642-15.328-2.4832-15.553-2.709-0.2258-0.22579 0.1486-4.6122 0.83199-9.7476 0.6834-5.1354 1.25-10.688 1.2592-12.34l0.0167-3.0024 15.148 0.32023c8.3312 0.17613 15.205 0.37514 15.275 0.44224 0.07 0.0671 0.40714 6.7465 0.7491 14.843 0.59458 14.077 0.5517 14.716-0.98073 14.606-0.88137-0.0631-8.4168-1.149-16.745-2.4132z" fill="#fd5" stroke="#f00" stroke-width="1.4998"/>
<path transform="matrix(.26458 0 0 .26458 0 95)" d="m656.93 693.74-5.2322-8.551 3.5363-4.7286 3.5363-4.7286 5.0592 9.0544 5.0592 9.0544-2.4267 3.9158c-1.3347 2.1537-2.8481 4.055-3.3632 4.2252-0.51509 0.17014-3.291-3.5386-6.1688-8.2416z" fill="#fd5" stroke="#f00" stroke-width="1.4998"/>
<path transform="matrix(.26458 0 0 .26458 0 95)" d="m670.58 715.84-6.2606-10.244 2.7226-4.2429c1.4975-2.3336 2.9706-4.2416 3.2737-4.2399 0.30309 2e-3 3.3942 5.0254 6.8692 11.164l6.3181 11.161-3.3313 3.3231-3.3313 3.3231z" fill="#fd5" stroke="#f00" stroke-width="1.4998"/>
<path transform="matrix(.26458 0 0 .26458 0 95)" d="m682.94 735.92c-2.1802-3.5329-3.9641-6.7218-3.9641-7.0864 0-0.87587 5.855-6.535 6.2696-6.0598 0.48875 0.56008 9.9448 17.107 9.9448 17.402 0 0.23217-7.0846 2.1672-7.9346 2.1672-0.19342 0-2.1355-2.8905-4.3158-6.4234z" fill="#fd5" stroke="#f00" stroke-width="1.4998"/>
<path transform="matrix(.26458 0 0 .26458 0 95)" d="m756.37 595.8c-5.5592-0.86111-10.26-1.6023-10.447-1.6471l-0.33944-0.0814v-30.964l2.8286 0.0962c1.5557 0.0529 7.2413 0.20644 12.634 0.34116 5.3932 0.13471 9.833 0.26986 9.8662 0.30033 0.0332 0.0305-0.0531 4.7577-0.1918 10.505l-0.25209 10.45-1.8605 6.2533c-1.0233 3.4393-1.9213 6.2668-1.9957 6.2832-0.0744 0.0164-4.6836-0.67472-10.243-1.5358z" fill="#fd5" stroke="#f00" stroke-width=".26513"/>
<path transform="matrix(.26458 0 0 .26458 0 95)" d="m352.4 385.49c-9.3834-1.9105-17.147-3.5807-17.253-3.7115-0.10552-0.13077 1.2948-4.5146 3.1117-9.7419l3.3036-9.5042 16.665 0.0602c9.1655 0.0331 17.238 0.23674 17.938 0.45258 1.2593 0.38806 1.2393 0.53524-1.8005 13.215-2.3603 9.8458-3.2864 12.809-3.989 12.763-0.50323-0.033-8.5923-1.6232-17.976-3.5337z" fill="#666" stroke="#f00" stroke-width="1.0605"/>
<path transform="matrix(.26458 0 0 .26458 0 95)" d="m356.88 360.27c-11.09-0.13361-14.328-0.34389-14.114-0.91662 0.15309-0.40878 1.3183-3.9122 2.5894-7.7853 2.059-6.2741 2.4795-7.0748 3.8552-7.3415 1.7067-0.3309 32.621 0.25482 32.621 0.61806 0 0.12509-0.83711 3.7487-1.8602 8.0525l-1.8602 7.8251-3.4198-0.1394c-1.8809-0.0767-9.8962-0.21743-17.812-0.31278z" fill="#666" stroke="#f00" stroke-width="1.0605"/>
<path transform="matrix(.26458 0 0 .26458 0 95)" d="m351.8 332.97 3.1118-9.0609 8.4841-2e-3c4.6662-1e-3 11.916-0.17747 16.11-0.39139l7.6256-0.38894-2.2151 9.2921-2.2151 9.2921-17.006 0.16022-17.006 0.16023z" fill="#666" stroke="#f00" stroke-width="1.0605"/>
<path transform="matrix(.26458 0 0 .26458 0 95)" d="m355.88 321.47c4.6e-4 -0.18096 0.77059-2.6249 1.7114-5.431 1.5063-4.4927 1.8957-5.1241 3.2616-5.2873 1.4274-0.17062 28.318 2.148 28.543 2.4612 0.0547 0.0759-0.28066 1.808-0.74518 3.8492l-0.84458 3.7112-7.9672 0.36882c-11.626 0.53818-23.96 0.707-23.959 0.32793z" fill="#666" stroke="#f00" stroke-width="1.0605"/>
</g>
</svg>
