<?xml version="1.0" encoding="UTF-8" standalone="no"?>
<!-- Created with Inkscape (http://www.inkscape.org/) -->

<svg
   xmlns:dc="http://purl.org/dc/elements/1.1/"
   xmlns:cc="http://creativecommons.org/ns#"
   xmlns:rdf="http://www.w3.org/1999/02/22-rdf-syntax-ns#"
   xmlns:svg="http://www.w3.org/2000/svg"
   xmlns="http://www.w3.org/2000/svg"
   xmlns:sodipodi="http://sodipodi.sourceforge.net/DTD/sodipodi-0.dtd"
   xmlns:inkscape="http://www.inkscape.org/namespaces/inkscape"
   width="210mm"
   height="297mm"
   viewBox="0 0 210 297"
   version="1.1"
   id="svg8"
   inkscape:version="0.92.3 (2405546, 2018-03-11)"
   sodipodi:docname="arena.svg">
  <defs
     id="defs2">
    <inkscape:path-effect
       effect="bspline"
       id="path-effect4688"
       is_visible="true"
       weight="33.333333"
       steps="2"
       helper_size="0"
       apply_no_weight="true"
       apply_with_weight="true"
       only_selected="false" />
    <inkscape:path-effect
       effect="bspline"
       id="path-effect4684"
       is_visible="true"
       weight="33.333333"
       steps="2"
       helper_size="0"
       apply_no_weight="true"
       apply_with_weight="true"
       only_selected="false" />
    <inkscape:path-effect
       effect="bspline"
       id="path-effect4680"
       is_visible="true"
       weight="33.333333"
       steps="2"
       helper_size="0"
       apply_no_weight="true"
       apply_with_weight="true"
       only_selected="false" />
    <inkscape:path-effect
       effect="bspline"
       id="path-effect4676"
       is_visible="true"
       weight="33.333333"
       steps="2"
       helper_size="0"
       apply_no_weight="true"
       apply_with_weight="true"
       only_selected="false" />
    <inkscape:path-effect
       effect="bspline"
       id="path-effect4672"
       is_visible="true"
       weight="33.333333"
       steps="2"
       helper_size="0"
       apply_no_weight="true"
       apply_with_weight="true"
       only_selected="false" />
    <inkscape:path-effect
       effect="bspline"
       id="path-effect4668"
       is_visible="true"
       weight="33.333333"
       steps="2"
       helper_size="0"
       apply_no_weight="true"
       apply_with_weight="true"
       only_selected="false" />
    <inkscape:path-effect
       effect="bspline"
       id="path-effect4664"
       is_visible="true"
       weight="33.333333"
       steps="2"
       helper_size="0"
       apply_no_weight="true"
       apply_with_weight="true"
       only_selected="false" />
    <inkscape:path-effect
       effect="bspline"
       id="path-effect4660"
       is_visible="true"
       weight="33.333333"
       steps="2"
       helper_size="0"
       apply_no_weight="true"
       apply_with_weight="true"
       only_selected="false" />
    <inkscape:path-effect
       effect="bspline"
       id="path-effect4656"
       is_visible="true"
       weight="33.333333"
       steps="2"
       helper_size="0"
       apply_no_weight="true"
       apply_with_weight="true"
       only_selected="false" />
    <inkscape:path-effect
       effect="bspline"
       id="path-effect4652"
       is_visible="true"
       weight="33.333333"
       steps="2"
       helper_size="0"
       apply_no_weight="true"
       apply_with_weight="true"
       only_selected="false" />
    <inkscape:path-effect
       effect="bspline"
       id="path-effect4648"
       is_visible="true"
       weight="33.333333"
       steps="2"
       helper_size="0"
       apply_no_weight="true"
       apply_with_weight="true"
       only_selected="false" />
    <inkscape:path-effect
       effect="bspline"
       id="path-effect4644"
       is_visible="true"
       weight="33.333333"
       steps="2"
       helper_size="0"
       apply_no_weight="true"
       apply_with_weight="true"
       only_selected="false" />
    <inkscape:path-effect
       effect="bspline"
       id="path-effect4640"
       is_visible="true"
       weight="33.333333"
       steps="2"
       helper_size="0"
       apply_no_weight="true"
       apply_with_weight="true"
       only_selected="false" />
    <inkscape:path-effect
       effect="bspline"
       id="path-effect4636"
       is_visible="true"
       weight="33.333333"
       steps="2"
       helper_size="0"
       apply_no_weight="true"
       apply_with_weight="true"
       only_selected="false" />
    <inkscape:path-effect
       effect="bspline"
       id="path-effect4632"
       is_visible="true"
       weight="33.333333"
       steps="2"
       helper_size="0"
       apply_no_weight="true"
       apply_with_weight="true"
       only_selected="false" />
    <inkscape:path-effect
       effect="bspline"
       id="path-effect4628"
       is_visible="true"
       weight="33.333333"
       steps="2"
       helper_size="0"
       apply_no_weight="true"
       apply_with_weight="true"
       only_selected="false" />
    <inkscape:path-effect
       effect="bspline"
       id="path-effect4624"
       is_visible="true"
       weight="33.333333"
       steps="2"
       helper_size="0"
       apply_no_weight="true"
       apply_with_weight="true"
       only_selected="false" />
    <inkscape:path-effect
       effect="bspline"
       id="path-effect4620"
       is_visible="true"
       weight="33.333333"
       steps="2"
       helper_size="0"
       apply_no_weight="true"
       apply_with_weight="true"
       only_selected="false" />
    <inkscape:path-effect
       effect="bspline"
       id="path-effect4616"
       is_visible="true"
       weight="33.333333"
       steps="2"
       helper_size="0"
       apply_no_weight="true"
       apply_with_weight="true"
       only_selected="false" />
    <inkscape:path-effect
       effect="bspline"
       id="path-effect4612"
       is_visible="true"
       weight="33.333333"
       steps="2"
       helper_size="0"
       apply_no_weight="true"
       apply_with_weight="true"
       only_selected="false" />
    <inkscape:path-effect
       effect="bspline"
       id="path-effect4608"
       is_visible="true"
       weight="33.333333"
       steps="2"
       helper_size="0"
       apply_no_weight="true"
       apply_with_weight="true"
       only_selected="false" />
    <inkscape:path-effect
       effect="bspline"
       id="path-effect4604"
       is_visible="true"
       weight="33.333333"
       steps="2"
       helper_size="0"
       apply_no_weight="true"
       apply_with_weight="true"
       only_selected="false" />
    <inkscape:path-effect
       effect="bspline"
       id="path-effect4600"
       is_visible="true"
       weight="33.333333"
       steps="2"
       helper_size="0"
       apply_no_weight="true"
       apply_with_weight="true"
       only_selected="false" />
  </defs>
  <sodipodi:namedview
     id="base"
     pagecolor="#ffffff"
     bordercolor="#666666"
     borderopacity="1.0"
     inkscape:pageopacity="0.0"
     inkscape:pageshadow="2"
     inkscape:zoom="0.82858485"
     inkscape:cx="786.50534"
     inkscape:cy="647.14005"
     inkscape:document-units="mm"
     inkscape:current-layer="layer1"
     showgrid="false"
     inkscape:window-width="2560"
     inkscape:window-height="1346"
     inkscape:window-x="-11"
     inkscape:window-y="-11"
     inkscape:window-maximized="1" />
  <metadata
     id="metadata5">
    <rdf:RDF>
      <cc:Work
         rdf:about="">
        <dc:format>image/svg+xml</dc:format>
        <dc:type
           rdf:resource="http://purl.org/dc/dcmitype/StillImage" />
        <dc:title></dc:title>
      </cc:Work>
    </rdf:RDF>
  </metadata>
  <g
     inkscape:label="Layer 1"
     inkscape:groupmode="layer"
     id="layer1">
    <path
       style="fill:none;stroke:#ff0000;stroke-width:0.46499997;stroke-miterlimit:4;stroke-dasharray:none;stroke-opacity:1"
       d="m 20.973694,208.18808 c 6.409477,-1.13718 12.819169,-2.2744 19.229059,-3.41166"
       id="path4622"
       inkscape:connector-curvature="0"
       inkscape:path-effect="#path-effect4624"
       inkscape:original-d="m 20.973694,208.18808 c 6.409423,-1.13749 12.819113,-2.27472 19.229059,-3.41166" />
    <g
       id="g4751"
       transform="rotate(-89.212295,353.14327,290.31998)">
      <g
         id="g4754">
        <path
           style="fill:none;stroke:#ff0000;stroke-width:0.465;stroke-linecap:butt;stroke-linejoin:miter;stroke-miterlimit:4;stroke-dasharray:none;stroke-opacity:1"
           d="m 390.07142,-38.170387 1.7009,71.437499 v 57.830357 l 0.9208,33.956731 5.69378,19.4324 13.22917,4.53572 26.26934,7.37053 20.31622,0.18899 23.15104,-8.40997 10.843,-7.75529 6.7329,-10.48206 c 0,0 2.02183,-6.01709 2.9619,-8.95942 0.62229,-2.4435 2.14077,-8.42748 2.14077,-8.42748 l 3.49629,-30.049109 2.17336,-38.931548 -2.36235,-25.135416 -7.858,-32.385003 -4.04825,-12.499669 -9.73289,-16.158483 -6.70909,-4.157737 -7.18153,-0.09449 -31.27754,1.41741 -18.44402,2.831499 -22.18841,3.972071 z"
           id="path4547"
           inkscape:connector-curvature="0"
           sodipodi:nodetypes="ccccccccccccccccccccccccc" />
      </g>
    </g>
    <path
       style="fill:none;stroke:#ff0000;stroke-width:0.465;stroke-linecap:butt;stroke-linejoin:miter;stroke-miterlimit:4;stroke-dasharray:none;stroke-opacity:1"
       d="m 37.570782,248.707 -3.47001,-10.07129 -5.574407,-22.26209 -1.670705,-9.71239 -0.703254,-30.57382 7.502738,-11.96624 14.395428,-16.64165 5.85941,-3.32743 8.146084,-2.05662 16.440631,-2.48348 8.795426,-3.01979 12.38761,-1.8344 20.054337,-0.52615 26.3573,2.76805 6.07063,0.75168 18.27867,2.25604 5.61912,1.3289 17.67357,10.485 13.03134,9.66816 6.54191,19.93658 0.006,28.73426 -7.44181,21.21445 -17.43385,17.12709"
       id="path4549"
       inkscape:connector-curvature="0" />
    <path
       style="fill:none;stroke:#ff0000;stroke-width:0.46499997;stroke-miterlimit:4;stroke-dasharray:none;stroke-opacity:1"
       d="m 52.666007,248.81947 c 0,0 -10.4989,-20.63699 -10.4989,-20.63699 0,0 -6.775632,-12.2307 -6.775632,-12.2307 0,0 -2.237902,-9.68431 -2.237902,-9.68431 0,0 -0.808979,-10.96313 -0.808979,-10.96313 0,0 1.271647,-10.36999 1.271647,-10.36999 0,0 3.877334,-11.01157 3.877334,-11.01157 0,0 8.759363,-12.97681 8.759363,-12.97681 0,0 11.252731,-9.5553 11.252731,-9.5553 0,0 19.408246,-7.35441 19.408246,-7.35441 2.020114,-0.4803 4.040036,-0.96055 6.074422,-1.31684 2.034386,-0.35628 7.41759,-0.96654 11.100009,-1.55204 3.682419,-0.58551 6.368184,-1.13738 11.492294,-1.33849 5.12412,-0.20111 12.20423,0.0475 17.88468,0.23852 5.68045,0.19101 9.96047,0.32439 13.68671,0.68574 3.72623,0.36135 6.89815,0.95064 10.19376,1.46643 3.29561,0.51578 6.71405,0.95792 12.4399,2.65507 5.72586,1.69714 13.75745,4.64882 19.60903,7.44845 5.85157,2.79963 9.52215,5.44686 12.32109,7.86585 2.79894,2.419 4.72573,4.60936 6.50728,8.49186 1.78155,3.88249 3.41713,9.45553 4.55926,14.31938 1.14214,4.86385 1.86585,9.49996 1.695,14.39989 -0.17086,4.89993 -1.19859,10.30398 -3.10598,16.51078 -1.90739,6.20681 -4.69417,13.21541 -7.15538,17.71677 -2.46122,4.50135 -4.59663,6.49497 -7.69793,8.95046 -3.1013,2.45548 -7.16844,5.37279 -11.23553,8.29006"
       id="path4598"
       inkscape:connector-curvature="0"
       inkscape:path-effect="#path-effect4600"
       inkscape:original-d="m 52.666007,248.81947 -10.4989,-20.63699 -6.775632,-12.2307 -2.237902,-9.68431 -0.808979,-10.96313 1.271647,-10.36999 3.877334,-11.01157 8.759363,-12.97681 11.252731,-9.5553 19.408246,-7.35441 c 0,0 4.039961,-0.96087 6.060341,-1.4409 2.020371,-0.48006 7.431639,-0.84276 11.147847,-1.26376 3.716209,-0.421 6.334357,-1.30192 9.501927,-1.95246 7.08074,0.24839 14.16085,0.49698 21.24167,0.7459 4.28008,0.13316 8.5601,0.26649 12.84055,0.40015 3.17205,0.58909 6.34397,1.17838 9.51634,1.76799 3.41884,0.44193 6.83728,0.88407 10.25631,1.32654 8.03271,2.95191 16.0643,5.90359 24.09684,8.8558 3.6706,2.64714 7.34117,5.29439 11.01216,7.942 1.92684,2.19043 3.85362,4.38081 5.78083,6.57161 1.63574,5.57422 3.27132,11.14726 4.90737,16.72129 0.67662,4.14921 1.37188,8.78976 2.05822,13.18505 -1.02813,5.40448 -2.05586,10.80853 -3.0834,16.21318 -2.78726,7.00889 -5.57403,14.0175 -8.36065,21.02663 -2.13575,1.99343 -4.27115,3.98706 -6.40635,5.98097 -4.06737,2.91703 -8.13452,5.83433 -12.20139,8.7519" />
    <path
       style="fill:none;stroke:#ff0000;stroke-width:0.46499997;stroke-miterlimit:4;stroke-dasharray:none;stroke-opacity:1"
       d="m 71.636264,248.68512 c -4.976004,-3.66061 -9.408592,-6.92145 -13.667262,-10.59293 -4.25867,-3.67148 -8.072388,-7.55427 -10.905932,-11.87921 -2.833543,-4.32494 -4.687549,-9.09288 -6.081657,-14.4467 -1.394108,-5.35381 -2.328659,-11.29468 -2.271536,-16.81676 0.05712,-5.52207 1.105887,-10.6264 2.989318,-15.54003 1.883432,-4.91364 4.601855,-9.63747 6.690884,-12.74185 2.089029,-3.10438 3.548948,-4.5898 5.008955,-6.07518 1.460007,-1.48537 2.920052,-2.97065 4.584183,-4.53153 1.66413,-1.56088 3.532376,-3.19739 7.083282,-4.65826 3.550905,-1.46087 8.78458,-2.74614 13.163809,-3.81698 4.379228,-1.07084 7.903724,-1.92718 13.353154,-2.43776 5.44943,-0.51058 12.822978,-0.67531 20.937658,-0.51052 8.11468,0.16479 16.96953,0.6591 25.91337,1.48731 8.94384,0.8282 17.97583,1.99025 24.09059,3.4049 6.11477,1.41466 9.31186,3.08192 13.09824,5.46269 3.78637,2.38077 8.16108,5.47444 11.76854,9.24989 3.60746,3.77546 6.44675,8.23186 8.23062,15.22045 1.78387,6.98859 2.44183,15.59209 1.71792,23.72573 -0.72391,8.13363 -2.8647,15.33835 -4.84132,20.00627 -1.97662,4.66792 -3.78891,6.79857 -5.8391,8.80627 -2.05019,2.00771 -4.33814,3.89232 -7.82858,6.13301 -3.49043,2.24068 -8.18336,4.83744 -12.57151,6.56013 -4.38815,1.72269 -8.47159,2.57138 -11.41992,3.12962 -2.94833,0.55823 -4.76174,0.82605 -6.57485,1.09382"
       id="path4602"
       inkscape:connector-curvature="0"
       inkscape:path-effect="#path-effect4604"
       inkscape:original-d="m 71.636264,248.68512 c -4.878396,-3.79329 -9.408562,-6.92149 -14.112448,-10.38185 -3.813493,-3.88255 -7.627207,-7.76535 -11.440418,-11.64764 -1.854006,-4.76754 -3.708007,-9.53548 -5.561619,-14.30279 -0.934686,-5.94034 -1.869239,-11.88121 -2.803468,-17.82142 1.04839,-5.10403 2.097147,-10.20836 3.146112,-15.31212 2.717891,-4.72363 5.436313,-9.44746 8.154786,-14.17065 1.459629,-1.48566 2.919555,-2.97107 4.37975,-4.45624 1.459817,-1.48558 2.919863,-2.97086 4.380181,-4.45589 1.867964,-1.63675 3.736199,-3.27327 5.60469,-4.90948 5.233497,-1.28556 10.467172,-2.57083 15.701152,-3.85584 3.52448,-0.85666 7.048976,-1.713 10.573859,-2.56911 7.374045,-0.16502 14.747589,-0.32973 22.121769,-0.49422 8.8552,0.49408 17.71005,0.98839 26.56547,1.48298 9.03228,1.16184 18.06427,2.32387 27.09679,3.48623 3.19704,1.66709 6.39412,3.33436 9.59156,5.00193 4.3753,3.09402 8.75,6.1877 13.1254,9.28193 2.83942,4.45676 5.67871,8.91316 8.51846,13.37013 0.53399,9.53501 1.38578,18.12369 2.07906,27.18595 -2.14118,7.2049 -4.28196,14.40962 -6.42255,21.61484 -1.81263,2.13047 -3.62492,4.26111 -5.43699,6.39209 -2.28826,1.88439 -4.5762,3.76901 -6.86391,5.6539 -4.6931,2.59646 -9.38603,5.19321 -14.07866,7.7902 -4.08357,0.84839 -8.16701,1.69708 -12.25013,2.54603 -1.81351,0.26754 -3.62692,0.53535 -5.43999,0.80342"
       sodipodi:nodetypes="ccccccccccccccccccccccccc" />
    <path
       style="fill:none;stroke:#ff0000;stroke-width:0.46499997;stroke-miterlimit:4;stroke-dasharray:none;stroke-opacity:1"
       d="m 171.18539,242.60612 c 3.54426,-6.15206 7.08846,-12.30404 9.76069,-19.87845 2.67222,-7.57442 4.47253,-16.57143 5.12332,-24.22684 0.65079,-7.65541 0.15211,-13.96958 -1.51047,-18.86244 -1.66259,-4.89287 -4.48912,-8.36489 -7.32899,-10.85216 -2.83988,-2.48727 -5.6936,-3.99032 -10.96915,-6.11046 -5.27556,-2.12014 -12.99103,-4.86391 -20.78672,-6.79378 -7.79568,-1.92986 -15.68785,-3.05011 -22.64154,-3.43843 -6.95369,-0.38833 -12.97305,-0.0453 -19.39627,0.66478 -6.423216,0.71004 -13.251088,1.78715 -19.418655,3.64241 -6.167566,1.85527 -11.696838,4.49905 -15.692931,6.74606 -3.996093,2.24701 -6.469996,4.10252 -8.846371,7.58257 -2.376376,3.48006 -4.655432,8.58501 -5.74922,14.58441 -1.093788,5.9994 -1.002287,12.89309 0.12054,19.29562 1.122826,6.40254 3.276921,12.31328 6.24271,17.26419 2.96579,4.95091 6.742917,8.94128 8.961246,11.15405 2.21833,2.21277 2.877608,2.6476 5.942838,4.32709 3.06523,1.67948 8.531294,4.60085 12.655981,6.5604 4.124688,1.95956 6.90514,2.95578 9.686066,3.95217"
       id="path4606"
       inkscape:connector-curvature="0"
       inkscape:path-effect="#path-effect4608"
       inkscape:original-d="m 171.18539,242.60612 c 3.54395,-6.15224 7.08816,-12.30421 10.63261,-18.45591 1.80001,-8.99702 3.60032,-17.99403 5.40086,-26.99065 -0.49891,-6.31412 -0.99759,-12.62829 -1.49599,-18.94203 -2.82655,-3.47199 -5.65308,-6.94401 -8.47924,-10.41561 -2.85351,-1.50307 -5.70723,-3.00612 -8.56045,-4.50876 -7.70633,-2.71396 -15.41337,-5.48144 -23.11965,-8.22178 -7.88882,-1.09334 -15.77728,-2.23972 -23.66553,-3.35919 -6.01918,0.34276 -12.03854,0.68581 -18.05741,1.02913 -6.827593,1.07676 -13.655466,2.15387 -20.482812,3.23121 -5.518175,2.61166 -11.037158,5.27696 -16.555343,7.91582 -2.474072,1.85518 -4.947979,3.71068 -7.421576,5.56642 -2.279248,5.10453 -4.558305,10.20948 -6.837066,15.31462 0.09125,6.8938 0.182747,13.78749 0.274511,20.68168 2.154003,5.91093 4.308097,11.82167 6.462536,17.73291 3.777274,3.99054 7.554399,7.98091 11.331994,11.97175 0.659117,0.43463 1.318401,0.86945 1.977992,1.30459 5.470871,2.92381 10.936936,5.84517 16.405799,8.76815 2.780509,0.99609 5.560966,1.9923 8.341839,2.98884" />
    <path
       style="fill:none;stroke:#ff0000;stroke-width:0.46499997;stroke-miterlimit:4;stroke-dasharray:none;stroke-opacity:1"
       d="m 25.442575,246.18832 c 3.415375,-0.41872 6.830976,-0.83747 10.731235,-1.70472 3.900259,-0.86724 8.28455,-2.18284 11.968392,-3.22189 3.683843,-1.03906 6.666738,-1.80143 9.649926,-2.56387"
       id="path4610"
       inkscape:connector-curvature="0"
       inkscape:path-effect="#path-effect4612"
       inkscape:original-d="m 25.442575,246.18832 c 3.41534,-0.41901 6.830941,-0.83776 10.246803,-1.25625 4.384602,-1.31601 8.768889,-2.63162 13.153724,-3.94704 2.982861,-0.7627 5.965756,-1.52507 8.949026,-2.28719" />
    <path
       style="fill:none;stroke:#ff0000;stroke-width:0.46499997;stroke-miterlimit:4;stroke-dasharray:none;stroke-opacity:1"
       d="m 21.187646,216.80548 c 6.520788,-1.5514 13.041765,-3.10284 19.562925,-4.65433"
       id="path4618"
       inkscape:connector-curvature="0"
       inkscape:path-effect="#path-effect4620"
       inkscape:original-d="m 21.187646,216.80548 c 6.520714,-1.55171 13.04169,-3.10316 19.562925,-4.65433" />
    <path
       style="fill:none;stroke:#ff0000;stroke-width:0.46499997;stroke-miterlimit:4;stroke-dasharray:none;stroke-opacity:1"
       d="m 17.526515,170.87526 c 7.354758,5.07744 14.709833,10.1551 22.065207,15.23297"
       id="path4626"
       inkscape:connector-curvature="0"
       inkscape:path-effect="#path-effect4628"
       inkscape:original-d="m 17.526515,170.87526 c 7.354807,5.07737 14.709877,10.15504 22.065207,15.23297" />
    <path
       style="fill:none;stroke:#ff0000;stroke-width:0.46499997;stroke-miterlimit:4;stroke-dasharray:none;stroke-opacity:1"
       d="m 17.807979,162.01716 c 7.817261,6.28136 15.634786,12.56292 23.452622,18.84474"
       id="path4630"
       inkscape:connector-curvature="0"
       inkscape:path-effect="#path-effect4632"
       inkscape:original-d="m 17.807979,162.01716 c 7.817281,6.28133 15.63482,12.56288 23.452622,18.84474" />
    <path
       style="fill:none;stroke:#ff0000;stroke-width:0.46499997;stroke-miterlimit:4;stroke-dasharray:none;stroke-opacity:1"
       d="m 44.912531,141.71192 c 2.828666,6.29318 5.657472,12.58667 8.486428,18.88049"
       id="path4634"
       inkscape:connector-curvature="0"
       inkscape:path-effect="#path-effect4636"
       inkscape:original-d="m 44.912531,141.71192 c 2.82855,6.29323 5.657357,12.58672 8.486428,18.88049"
       sodipodi:nodetypes="cc" />
    <path
       style="fill:none;stroke:#ff0000;stroke-width:0.46499997;stroke-miterlimit:4;stroke-dasharray:none;stroke-opacity:1"
       d="m 50.910384,139.8135 c 1.556527,6.0224 3.113135,12.04512 4.669825,18.06816"
       id="path4638"
       inkscape:connector-curvature="0"
       inkscape:path-effect="#path-effect4640"
       inkscape:original-d="m 50.910384,139.8135 c 1.556348,6.02245 3.112956,12.04517 4.669825,18.06816" />
    <path
       style="fill:none;stroke:#ff0000;stroke-width:0.46499997;stroke-miterlimit:4;stroke-dasharray:none;stroke-opacity:1"
       d="m 90.837358,131.90563 c 0.05876,4.35872 0.117509,8.71624 0.176269,13.07479"
       id="path4642"
       inkscape:connector-curvature="0"
       inkscape:path-effect="#path-effect4644"
       inkscape:original-d="m 90.837358,131.90563 c 0.0851,4.35836 0.117253,8.71624 0.176269,13.07479" />
    <path
       style="fill:none;stroke:#ff0000;stroke-width:0.46499997;stroke-miterlimit:4;stroke-dasharray:none;stroke-opacity:1"
       d="m 96.434065,131.31073 c -0.726317,4.35678 -1.452668,8.71376 -2.179061,13.07099"
       id="path4646"
       inkscape:connector-curvature="0"
       inkscape:path-effect="#path-effect4648"
       inkscape:original-d="m 96.434065,131.31073 c -0.726613,4.35673 -1.45297,8.71371 -2.179061,13.07099" />
    <path
       style="fill:none;stroke:#ff0000;stroke-width:0.46499997;stroke-miterlimit:4;stroke-dasharray:none;stroke-opacity:1"
       d="m 133.79664,131.62857 c -1.6632,4.32457 -3.32645,8.6493 -4.98977,12.97418"
       id="path4650"
       inkscape:connector-curvature="0"
       inkscape:path-effect="#path-effect4652"
       inkscape:original-d="m 133.79664,131.62857 c -1.66352,4.32445 -3.32677,8.64918 -4.98977,12.97418" />
    <path
       style="fill:none;stroke:#ff0000;stroke-width:0.46499997;stroke-miterlimit:4;stroke-dasharray:none;stroke-opacity:1"
       d="m 129.82828,131.70197 c -1.47042,4.54272 -2.82908,8.74016 -4.24371,13.1105"
       id="path4654"
       inkscape:connector-curvature="0"
       inkscape:path-effect="#path-effect4656"
       inkscape:original-d="m 129.82828,131.70197 c -1.68207,4.47421 -2.8294,8.74006 -4.24371,13.1105" />
    <path
       style="fill:none;stroke:#ff0000;stroke-width:0.46499997;stroke-miterlimit:4;stroke-dasharray:none;stroke-opacity:1"
       d="m 180.55019,137.74745 c -3.73059,4.69605 -7.4874,9.42511 -11.23114,14.13771"
       id="path4658"
       inkscape:connector-curvature="0"
       inkscape:path-effect="#path-effect4660"
       inkscape:original-d="m 180.55019,137.74745 c -3.74361,4.6857 -7.48769,9.42488 -11.23114,14.13771" />
    <path
       style="fill:none;stroke:#ff0000;stroke-width:0.46499997;stroke-miterlimit:4;stroke-dasharray:none;stroke-opacity:1"
       d="m 185.85932,139.25875 c -4.29714,4.78437 -8.59431,9.56876 -12.89149,14.35316"
       id="path4662"
       inkscape:connector-curvature="0"
       inkscape:path-effect="#path-effect4664"
       inkscape:original-d="m 185.85932,139.25875 c -4.29743,4.78411 -8.59459,9.56851 -12.89149,14.35316" />
    <path
       style="fill:none;stroke:#ff0000;stroke-width:0.46499997;stroke-miterlimit:4;stroke-dasharray:none;stroke-opacity:1"
       d="m 215.26431,166.48839 c -7.94037,0.95489 -15.88754,1.91059 -23.83096,2.86585"
       id="path4666"
       inkscape:connector-curvature="0"
       inkscape:path-effect="#path-effect4668"
       inkscape:original-d="m 215.26431,166.48839 c -7.94355,0.92842 -15.88757,1.91031 -23.83096,2.86585" />
    <path
       style="fill:none;stroke:#ff0000;stroke-width:0.46499997;stroke-miterlimit:4;stroke-dasharray:none;stroke-opacity:1"
       d="m 217.13678,173.88684 c -7.56035,0.68523 -15.12046,1.37045 -22.68035,2.05564"
       id="path4670"
       inkscape:connector-curvature="0"
       inkscape:path-effect="#path-effect4672"
       inkscape:original-d="m 217.13678,173.88684 c -7.56038,0.68495 -15.12049,1.37015 -22.68035,2.05564" />
    <path
       style="fill:none;stroke:#ff0000;stroke-width:0.46499997;stroke-miterlimit:4;stroke-dasharray:none;stroke-opacity:1"
       d="m 220.74333,197.94966 c -7.256,-0.16972 -14.51173,-0.33943 -21.76717,-0.50914"
       id="path4674"
       inkscape:connector-curvature="0"
       inkscape:path-effect="#path-effect4676"
       inkscape:original-d="m 220.74333,197.94966 c -7.25599,-0.16997 -14.51172,-0.33969 -21.76717,-0.50914" />
    <path
       style="fill:none;stroke:#ff0000;stroke-width:0.46499997;stroke-miterlimit:4;stroke-dasharray:none;stroke-opacity:1"
       d="m 218.57691,207.05677 c -7.18401,-1.04533 -14.36774,-2.09062 -17.94623,-2.61308 -3.57849,-0.52246 -3.55195,-0.52213 -3.52515,-0.52179"
       id="path4678"
       inkscape:connector-curvature="0"
       inkscape:path-effect="#path-effect4680"
       inkscape:original-d="m 218.57691,207.05677 c -7.18398,-1.04557 -14.36771,-2.09085 -21.55118,-3.13587 0.0268,-0.0265 0.053,4.6e-4 0.0798,0.001" />
    <path
       style="fill:none;stroke:#ff0000;stroke-width:0.46499997;stroke-miterlimit:4;stroke-dasharray:none;stroke-opacity:1"
       d="m 200.84858,245.24942 c -3.45593,-6.08887 -6.91168,-12.17741 -10.36725,-18.26564"
       id="path4682"
       inkscape:connector-curvature="0"
       inkscape:path-effect="#path-effect4684"
       inkscape:original-d="m 200.84858,245.24942 c -3.45601,-6.08882 -6.91177,-12.17736 -10.36725,-18.26564" />
    <path
       style="fill:none;stroke:#ff0000;stroke-width:0.46499997;stroke-miterlimit:4;stroke-dasharray:none;stroke-opacity:1"
       d="m 197.14111,244.82096 c -2.8293,-4.78546 -5.65841,-9.57059 -8.48733,-14.3554"
       id="path4686"
       inkscape:connector-curvature="0"
       inkscape:path-effect="#path-effect4688"
       inkscape:original-d="m 197.14111,244.82096 c -2.82937,-4.78542 -5.65849,-9.57054 -8.48733,-14.3554" />
    <path
       style="fill:none;stroke:#ff0000;stroke-width:0.46499997;stroke-miterlimit:4;stroke-dasharray:none;stroke-opacity:1"
       d="m 47.900446,131.50333 0.184735,-25.44027 -20.10146,0.612 -5.773773,-46.101228 55.352757,-11.51618 5.456943,48.279103 -34.934467,8.726305 5.450095,-1.14795 3.827503,24.54649 z"
       id="path4690"
       inkscape:connector-curvature="0" />
    <path
       style="fill:none;stroke:#ff0000;stroke-width:0.46499997;stroke-miterlimit:4;stroke-dasharray:none;stroke-opacity:1"
       d="m 126.71821,117.88734 6.71884,-19.453973 31.23387,-0.14326 11.25925,-51.25519 -69.3233,-0.84767 -1.96323,49.56402 37.31612,3.43502 -5.00441,20.770133 z"
       id="path4692"
       inkscape:connector-curvature="0" />
  </g>
</svg>
