<?xml version="1.0" encoding="UTF-8" standalone="no"?>
<!-- Created with Inkscape (http://www.inkscape.org/) -->

<svg
   xmlns:dc="http://purl.org/dc/elements/1.1/"
   xmlns:cc="http://creativecommons.org/ns#"
   xmlns:rdf="http://www.w3.org/1999/02/22-rdf-syntax-ns#"
   xmlns:svg="http://www.w3.org/2000/svg"
   xmlns="http://www.w3.org/2000/svg"
   xmlns:sodipodi="http://sodipodi.sourceforge.net/DTD/sodipodi-0.dtd"
   xmlns:inkscape="http://www.inkscape.org/namespaces/inkscape"
   width="206mm"
   height="173mm"
   viewBox="0 0 206 173"
   version="1.1"
   id="svg8"
   inkscape:version="0.92.3 (2405546, 2018-03-11)"
   sodipodi:docname="arenacolor.svg">
  <defs
     id="defs2">
    <inkscape:path-effect
       effect="bspline"
       id="path-effect4688"
       is_visible="true"
       weight="33.333333"
       steps="2"
       helper_size="0"
       apply_no_weight="true"
       apply_with_weight="true"
       only_selected="false" />
    <inkscape:path-effect
       effect="bspline"
       id="path-effect4684"
       is_visible="true"
       weight="33.333333"
       steps="2"
       helper_size="0"
       apply_no_weight="true"
       apply_with_weight="true"
       only_selected="false" />
    <inkscape:path-effect
       effect="bspline"
       id="path-effect4680"
       is_visible="true"
       weight="33.333333"
       steps="2"
       helper_size="0"
       apply_no_weight="true"
       apply_with_weight="true"
       only_selected="false" />
    <inkscape:path-effect
       effect="bspline"
       id="path-effect4676"
       is_visible="true"
       weight="33.333333"
       steps="2"
       helper_size="0"
       apply_no_weight="true"
       apply_with_weight="true"
       only_selected="false" />
    <inkscape:path-effect
       effect="bspline"
       id="path-effect4672"
       is_visible="true"
       weight="33.333333"
       steps="2"
       helper_size="0"
       apply_no_weight="true"
       apply_with_weight="true"
       only_selected="false" />
    <inkscape:path-effect
       effect="bspline"
       id="path-effect4668"
       is_visible="true"
       weight="33.333333"
       steps="2"
       helper_size="0"
       apply_no_weight="true"
       apply_with_weight="true"
       only_selected="false" />
    <inkscape:path-effect
       effect="bspline"
       id="path-effect4664"
       is_visible="true"
       weight="33.333333"
       steps="2"
       helper_size="0"
       apply_no_weight="true"
       apply_with_weight="true"
       only_selected="false" />
    <inkscape:path-effect
       effect="bspline"
       id="path-effect4660"
       is_visible="true"
       weight="33.333333"
       steps="2"
       helper_size="0"
       apply_no_weight="true"
       apply_with_weight="true"
       only_selected="false" />
    <inkscape:path-effect
       effect="bspline"
       id="path-effect4656"
       is_visible="true"
       weight="33.333333"
       steps="2"
       helper_size="0"
       apply_no_weight="true"
       apply_with_weight="true"
       only_selected="false" />
    <inkscape:path-effect
       effect="bspline"
       id="path-effect4652"
       is_visible="true"
       weight="33.333333"
       steps="2"
       helper_size="0"
       apply_no_weight="true"
       apply_with_weight="true"
       only_selected="false" />
    <inkscape:path-effect
       effect="bspline"
       id="path-effect4648"
       is_visible="true"
       weight="33.333333"
       steps="2"
       helper_size="0"
       apply_no_weight="true"
       apply_with_weight="true"
       only_selected="false" />
    <inkscape:path-effect
       effect="bspline"
       id="path-effect4644"
       is_visible="true"
       weight="33.333333"
       steps="2"
       helper_size="0"
       apply_no_weight="true"
       apply_with_weight="true"
       only_selected="false" />
    <inkscape:path-effect
       effect="bspline"
       id="path-effect4640"
       is_visible="true"
       weight="33.333333"
       steps="2"
       helper_size="0"
       apply_no_weight="true"
       apply_with_weight="true"
       only_selected="false" />
    <inkscape:path-effect
       effect="bspline"
       id="path-effect4636"
       is_visible="true"
       weight="33.333333"
       steps="2"
       helper_size="0"
       apply_no_weight="true"
       apply_with_weight="true"
       only_selected="false" />
    <inkscape:path-effect
       effect="bspline"
       id="path-effect4632"
       is_visible="true"
       weight="33.333333"
       steps="2"
       helper_size="0"
       apply_no_weight="true"
       apply_with_weight="true"
       only_selected="false" />
    <inkscape:path-effect
       effect="bspline"
       id="path-effect4628"
       is_visible="true"
       weight="33.333333"
       steps="2"
       helper_size="0"
       apply_no_weight="true"
       apply_with_weight="true"
       only_selected="false" />
    <inkscape:path-effect
       effect="bspline"
       id="path-effect4624"
       is_visible="true"
       weight="33.333333"
       steps="2"
       helper_size="0"
       apply_no_weight="true"
       apply_with_weight="true"
       only_selected="false" />
    <inkscape:path-effect
       effect="bspline"
       id="path-effect4620"
       is_visible="true"
       weight="33.333333"
       steps="2"
       helper_size="0"
       apply_no_weight="true"
       apply_with_weight="true"
       only_selected="false" />
    <inkscape:path-effect
       effect="bspline"
       id="path-effect4616"
       is_visible="true"
       weight="33.333333"
       steps="2"
       helper_size="0"
       apply_no_weight="true"
       apply_with_weight="true"
       only_selected="false" />
    <inkscape:path-effect
       effect="bspline"
       id="path-effect4612"
       is_visible="true"
       weight="33.333333"
       steps="2"
       helper_size="0"
       apply_no_weight="true"
       apply_with_weight="true"
       only_selected="false" />
    <inkscape:path-effect
       effect="bspline"
       id="path-effect4608"
       is_visible="true"
       weight="33.333333"
       steps="2"
       helper_size="0"
       apply_no_weight="true"
       apply_with_weight="true"
       only_selected="false" />
    <inkscape:path-effect
       effect="bspline"
       id="path-effect4604"
       is_visible="true"
       weight="33.333333"
       steps="2"
       helper_size="0"
       apply_no_weight="true"
       apply_with_weight="true"
       only_selected="false" />
    <inkscape:path-effect
       effect="bspline"
       id="path-effect4600"
       is_visible="true"
       weight="33.333333"
       steps="2"
       helper_size="0"
       apply_no_weight="true"
       apply_with_weight="true"
       only_selected="false" />
  </defs>
  <sodipodi:namedview
     id="base"
     pagecolor="#ffffff"
     bordercolor="#666666"
     borderopacity="1.0"
     inkscape:pageopacity="0.0"
     inkscape:pageshadow="2"
     inkscape:zoom="0.82858485"
     inkscape:cx="591.40262"
     inkscape:cy="448.41416"
     inkscape:document-units="mm"
     inkscape:current-layer="layer1"
     showgrid="false"
     inkscape:window-width="2560"
     inkscape:window-height="1346"
     inkscape:window-x="-11"
     inkscape:window-y="-11"
     inkscape:window-maximized="1"
     inkscape:showpageshadow="false" />
  <metadata
     id="metadata5">
    <rdf:RDF>
      <cc:Work
         rdf:about="">
        <dc:format>image/svg+xml</dc:format>
        <dc:type
           rdf:resource="http://purl.org/dc/dcmitype/StillImage" />
        <dc:title></dc:title>
      </cc:Work>
    </rdf:RDF>
  </metadata>
  <g
     inkscape:label="Layer 1"
     inkscape:groupmode="layer"
     id="layer1"
     transform="translate(0,-124)">
    <path
       style="fill:none;stroke:#ff0000;stroke-width:0.46499997;stroke-miterlimit:4;stroke-dasharray:none;stroke-opacity:1"
       d="m 3.5707791,254.32976 c 6.7819859,-1.1904 13.5642179,-2.38084 20.3466769,-3.57132"
       id="path4622"
       inkscape:connector-curvature="0"
       inkscape:path-effect="#path-effect4624"
       inkscape:original-d="M 3.5707791,254.32976 C 10.352728,253.13915 17.13496,251.94871 23.917456,250.75844"
       sodipodi:nodetypes="cc" />
    <g
       id="g4751"
       transform="rotate(-89.212295,368.3099,321.56635)">
      <g
         id="g4754">
        <path
           style="fill:none;stroke:#ff0000;stroke-width:0.465;stroke-linecap:butt;stroke-linejoin:miter;stroke-miterlimit:4;stroke-dasharray:none;stroke-opacity:1"
           d="m 390.07142,-38.170387 1.7009,71.437499 v 57.830357 l 0.9208,33.956731 5.69378,19.4324 13.22917,4.53572 26.26934,7.37053 20.31622,0.18899 23.15104,-8.40997 10.843,-7.75529 6.7329,-10.48206 c 0,0 2.02183,-6.01709 2.9619,-8.95942 0.62229,-2.4435 2.14077,-8.42748 2.14077,-8.42748 l 3.49629,-30.049109 2.17336,-38.931548 -2.36235,-25.135416 -7.858,-32.385003 -4.04825,-12.499669 -9.73289,-16.158483 -6.70909,-4.157737 -7.18153,-0.09449 -31.27754,1.41741 -18.44402,2.831499 -22.18841,3.972071 z"
           id="path4547"
           inkscape:connector-curvature="0"
           sodipodi:nodetypes="ccccccccccccccccccccccccc" />
      </g>
    </g>
    <path
       style="fill:none;stroke:#ff0000;stroke-width:0.465;stroke-linecap:butt;stroke-linejoin:miter;stroke-miterlimit:4;stroke-dasharray:none;stroke-opacity:1"
       d="m 21.285485,294.68902 -3.47001,-10.07129 -5.574407,-22.26209 -1.670705,-9.71239 -0.7032538,-30.57382 7.5027378,-11.96624 14.395428,-16.64165 5.85941,-3.32743 8.146084,-2.05662 16.440631,-2.48348 8.795426,-3.01979 12.38761,-1.8344 20.054334,-0.52615 26.3573,2.76805 6.07063,0.75168 18.27867,2.25604 5.61912,1.3289 17.67357,10.485 13.03134,9.66816 6.54191,19.93658 0.006,28.73426 -7.44181,21.21445 -17.43385,17.12709"
       id="path4549"
       inkscape:connector-curvature="0" />
    <path
       style="fill:none;stroke:#ff0000;stroke-width:0.46499997;stroke-miterlimit:4;stroke-dasharray:none;stroke-opacity:1"
       d="m 36.38071,294.80149 c 0,0 -10.4989,-20.63699 -10.4989,-20.63699 0,0 -6.775632,-12.2307 -6.775632,-12.2307 0,0 -2.237902,-9.68431 -2.237902,-9.68431 0,0 -0.808979,-10.96313 -0.808979,-10.96313 0,0 1.271647,-10.36999 1.271647,-10.36999 0,0 3.877334,-11.01157 3.877334,-11.01157 0,0 8.759363,-12.97681 8.759363,-12.97681 0,0 11.252731,-9.5553 11.252731,-9.5553 0,0 19.408246,-7.35441 19.408246,-7.35441 2.020114,-0.4803 4.040036,-0.96055 6.074422,-1.31684 2.034386,-0.35628 7.41759,-0.96654 11.100009,-1.55204 3.682419,-0.58551 6.36818,-1.13738 11.492298,-1.33849 5.124117,-0.20111 12.204223,0.0475 17.884673,0.23852 5.68045,0.19101 9.96047,0.32439 13.68671,0.68574 3.72623,0.36135 6.89815,0.95064 10.19376,1.46643 3.29561,0.51578 6.71405,0.95792 12.4399,2.65507 5.72586,1.69714 13.75745,4.64882 19.60903,7.44845 5.85157,2.79963 9.52215,5.44686 12.32109,7.86585 2.79894,2.419 4.72573,4.60936 6.50728,8.49186 1.78155,3.88249 3.41713,9.45553 4.55926,14.31938 1.14214,4.86385 1.86585,9.49996 1.695,14.39989 -0.17086,4.89993 -1.19859,10.30398 -3.10598,16.51078 -1.90739,6.20681 -4.69417,13.21541 -7.15538,17.71677 -2.46122,4.50135 -4.59663,6.49497 -7.69793,8.95046 -3.1013,2.45548 -7.16844,5.37279 -11.23553,8.29006"
       id="path4598"
       inkscape:connector-curvature="0"
       inkscape:path-effect="#path-effect4600"
       inkscape:original-d="m 36.38071,294.80149 -10.4989,-20.63699 -6.775632,-12.2307 -2.237902,-9.68431 -0.808979,-10.96313 1.271647,-10.36999 3.877334,-11.01157 8.759363,-12.97681 11.252731,-9.5553 19.408246,-7.35441 c 0,0 4.039961,-0.96087 6.060341,-1.4409 2.020371,-0.48006 7.431639,-0.84276 11.147847,-1.26376 3.716209,-0.421 6.334357,-1.30192 9.501927,-1.95246 7.08074,0.24839 14.160847,0.49698 21.241667,0.7459 4.28008,0.13316 8.5601,0.26649 12.84055,0.40015 3.17205,0.58909 6.34397,1.17838 9.51634,1.76799 3.41884,0.44193 6.83728,0.88407 10.25631,1.32654 8.03271,2.95191 16.0643,5.90359 24.09684,8.8558 3.6706,2.64714 7.34117,5.29439 11.01216,7.942 1.92684,2.19043 3.85362,4.38081 5.78083,6.57161 1.63574,5.57422 3.27132,11.14726 4.90737,16.72129 0.67662,4.14921 1.37188,8.78976 2.05822,13.18505 -1.02813,5.40448 -2.05586,10.80853 -3.0834,16.21318 -2.78726,7.00889 -5.57403,14.0175 -8.36065,21.02663 -2.13575,1.99343 -4.27115,3.98706 -6.40635,5.98097 -4.06737,2.91703 -8.13452,5.83433 -12.20139,8.7519" />
    <path
       style="fill:none;stroke:#ff0000;stroke-width:0.46499997;stroke-miterlimit:4;stroke-dasharray:none;stroke-opacity:1"
       d="m 55.350967,294.66714 c -4.976004,-3.66061 -9.408592,-6.92145 -13.667262,-10.59293 -4.25867,-3.67148 -8.072388,-7.55427 -10.905932,-11.87921 -2.833543,-4.32494 -4.687549,-9.09288 -6.081657,-14.4467 -1.394108,-5.35381 -2.328659,-11.29468 -2.271536,-16.81676 0.05712,-5.52207 1.105887,-10.6264 2.989318,-15.54003 1.883432,-4.91364 4.601855,-9.63747 6.690884,-12.74185 2.089029,-3.10438 3.548948,-4.5898 5.008955,-6.07518 1.460007,-1.48537 2.920052,-2.97065 4.584183,-4.53153 1.66413,-1.56088 3.532376,-3.19739 7.083282,-4.65826 3.550905,-1.46087 8.78458,-2.74614 13.163809,-3.81698 4.379228,-1.07084 7.903724,-1.92718 13.353154,-2.43776 5.44943,-0.51058 12.822974,-0.67531 20.937652,-0.51052 8.114683,0.16479 16.969533,0.6591 25.913373,1.48731 8.94384,0.8282 17.97583,1.99025 24.09059,3.4049 6.11477,1.41466 9.31186,3.08192 13.09824,5.46269 3.78637,2.38077 8.16108,5.47444 11.76854,9.24989 3.60746,3.77546 6.44675,8.23186 8.23062,15.22045 1.78387,6.98859 2.44183,15.59209 1.71792,23.72573 -0.72391,8.13363 -2.8647,15.33835 -4.84132,20.00627 -1.97662,4.66792 -3.78891,6.79857 -5.8391,8.80627 -2.05019,2.00771 -4.33814,3.89232 -7.82858,6.13301 -3.49043,2.24068 -8.18336,4.83744 -12.57151,6.56013 -4.38815,1.72269 -8.47159,2.57138 -11.41992,3.12962 -2.94833,0.55823 -4.76174,0.82605 -6.57485,1.09382"
       id="path4602"
       inkscape:connector-curvature="0"
       inkscape:path-effect="#path-effect4604"
       inkscape:original-d="m 55.350967,294.66714 c -4.878396,-3.79329 -9.408562,-6.92149 -14.112448,-10.38185 -3.813493,-3.88255 -7.627207,-7.76535 -11.440418,-11.64764 -1.854006,-4.76754 -3.708007,-9.53548 -5.561619,-14.30279 -0.934686,-5.94034 -1.869239,-11.88121 -2.803468,-17.82142 1.04839,-5.10403 2.097147,-10.20836 3.146112,-15.31212 2.717891,-4.72363 5.436313,-9.44746 8.154786,-14.17065 1.459629,-1.48566 2.919555,-2.97107 4.37975,-4.45624 1.459817,-1.48558 2.919863,-2.97086 4.380181,-4.45589 1.867964,-1.63675 3.736199,-3.27327 5.60469,-4.90948 5.233497,-1.28556 10.467172,-2.57083 15.701152,-3.85584 3.52448,-0.85666 7.048976,-1.713 10.573859,-2.56911 7.374045,-0.16502 14.747589,-0.32973 22.121769,-0.49422 8.855197,0.49408 17.710047,0.98839 26.565467,1.48298 9.03228,1.16184 18.06427,2.32387 27.09679,3.48623 3.19704,1.66709 6.39412,3.33436 9.59156,5.00193 4.3753,3.09402 8.75,6.1877 13.1254,9.28193 2.83942,4.45676 5.67871,8.91316 8.51846,13.37013 0.53399,9.53501 1.38578,18.12369 2.07906,27.18595 -2.14118,7.2049 -4.28196,14.40962 -6.42255,21.61484 -1.81263,2.13047 -3.62492,4.26111 -5.43699,6.39209 -2.28826,1.88439 -4.5762,3.76901 -6.86391,5.6539 -4.6931,2.59646 -9.38603,5.19321 -14.07866,7.7902 -4.08357,0.84839 -8.16701,1.69708 -12.25013,2.54603 -1.81351,0.26754 -3.62692,0.53535 -5.43999,0.80342"
       sodipodi:nodetypes="ccccccccccccccccccccccccc" />
    <path
       style="fill:none;stroke:#ff0000;stroke-width:0.46499997;stroke-miterlimit:4;stroke-dasharray:none;stroke-opacity:1"
       d="m 154.90009,288.58814 c 3.54426,-6.15206 7.08846,-12.30404 9.76069,-19.87845 2.67222,-7.57442 4.47253,-16.57143 5.12332,-24.22684 0.65079,-7.65541 0.15211,-13.96958 -1.51047,-18.86244 -1.66259,-4.89287 -4.48912,-8.36489 -7.32899,-10.85216 -2.83988,-2.48727 -5.6936,-3.99032 -10.96915,-6.11046 -5.27556,-2.12014 -12.99103,-4.86391 -20.78672,-6.79378 -7.79568,-1.92986 -15.68785,-3.05011 -22.64154,-3.43843 -6.953691,-0.38833 -12.97305,-0.0453 -19.396266,0.66478 -6.423217,0.71004 -13.251089,1.78715 -19.418656,3.64241 -6.167566,1.85527 -11.696838,4.49905 -15.692931,6.74606 -3.996093,2.24701 -6.469996,4.10252 -8.846371,7.58257 -2.376376,3.48006 -4.655432,8.58501 -5.74922,14.58441 -1.093788,5.9994 -1.002287,12.89309 0.12054,19.29562 1.122826,6.40254 3.276921,12.31328 6.24271,17.26419 2.96579,4.95091 6.742917,8.94128 8.961246,11.15405 2.21833,2.21277 2.877608,2.6476 5.942838,4.32709 3.06523,1.67948 8.531294,4.60085 12.655981,6.5604 4.124688,1.95956 6.90514,2.95578 9.686066,3.95217"
       id="path4606"
       inkscape:connector-curvature="0"
       inkscape:path-effect="#path-effect4608"
       inkscape:original-d="m 154.90009,288.58814 c 3.54395,-6.15224 7.08816,-12.30421 10.63261,-18.45591 1.80001,-8.99702 3.60032,-17.99403 5.40086,-26.99065 -0.49891,-6.31412 -0.99759,-12.62829 -1.49599,-18.94203 -2.82655,-3.47199 -5.65308,-6.94401 -8.47924,-10.41561 -2.85351,-1.50307 -5.70723,-3.00612 -8.56045,-4.50876 -7.70633,-2.71396 -15.41337,-5.48144 -23.11965,-8.22178 -7.88882,-1.09334 -15.77728,-2.23972 -23.66553,-3.35919 -6.019177,0.34276 -12.038537,0.68581 -18.057407,1.02913 -6.827593,1.07676 -13.655466,2.15387 -20.482812,3.23121 -5.518175,2.61166 -11.037158,5.27696 -16.555343,7.91582 -2.474072,1.85518 -4.947979,3.71068 -7.421576,5.56642 -2.279248,5.10453 -4.558305,10.20948 -6.837066,15.31462 0.09125,6.8938 0.182747,13.78749 0.274511,20.68168 2.154003,5.91093 4.308097,11.82167 6.462536,17.73291 3.777274,3.99054 7.554399,7.98091 11.331994,11.97175 0.659117,0.43463 1.318401,0.86945 1.977992,1.30459 5.470871,2.92381 10.936936,5.84517 16.405799,8.76815 2.780509,0.99609 5.560966,1.9923 8.341839,2.98884" />
    <path
       style="fill:none;stroke:#ff0000;stroke-width:0.46499997;stroke-miterlimit:4;stroke-dasharray:none;stroke-opacity:1"
       d="m 9.1572782,292.17034 c 3.4153748,-0.41872 6.8309758,-0.83747 10.7312348,-1.70472 3.900259,-0.86724 8.28455,-2.18284 11.968392,-3.22189 3.683843,-1.03906 6.666738,-1.80143 9.649926,-2.56387"
       id="path4610"
       inkscape:connector-curvature="0"
       inkscape:path-effect="#path-effect4612"
       inkscape:original-d="m 9.1572782,292.17034 c 3.4153398,-0.41901 6.8309408,-0.83776 10.2468028,-1.25625 4.384602,-1.31601 8.768889,-2.63162 13.153724,-3.94704 2.982861,-0.7627 5.965756,-1.52507 8.949026,-2.28719" />
    <path
       style="fill:none;stroke:#ff0000;stroke-width:0.46499997;stroke-miterlimit:4;stroke-dasharray:none;stroke-opacity:1"
       d="m 4.9023495,262.7875 c 6.5207875,-1.5514 13.0417645,-3.10284 19.5629245,-4.65433"
       id="path4618"
       inkscape:connector-curvature="0"
       inkscape:path-effect="#path-effect4620"
       inkscape:original-d="m 4.9023495,262.7875 c 6.5207135,-1.55171 13.0416895,-3.10316 19.5629245,-4.65433" />
    <path
       style="fill:none;stroke:#ff0000;stroke-width:0.46499997;stroke-miterlimit:4;stroke-dasharray:none;stroke-opacity:1"
       d="m 1.2412185,216.85728 c 7.3547573,5.07744 14.7098335,10.1551 22.0652065,15.23297"
       id="path4626"
       inkscape:connector-curvature="0"
       inkscape:path-effect="#path-effect4628"
       inkscape:original-d="m 1.2412185,216.85728 c 7.3548067,5.07737 14.7098765,10.15504 22.0652065,15.23297" />
    <path
       style="fill:none;stroke:#ff0000;stroke-width:0.46499997;stroke-miterlimit:4;stroke-dasharray:none;stroke-opacity:1"
       d="m 1.5226825,207.99918 c 7.8172606,6.28136 15.6347855,12.56292 23.4526215,18.84474"
       id="path4630"
       inkscape:connector-curvature="0"
       inkscape:path-effect="#path-effect4632"
       inkscape:original-d="m 1.5226825,207.99918 c 7.8172807,6.28133 15.6348195,12.56288 23.4526215,18.84474" />
    <path
       style="fill:none;stroke:#ff0000;stroke-width:0.46499997;stroke-miterlimit:4;stroke-dasharray:none;stroke-opacity:1"
       d="m 28.627234,187.69394 c 2.828666,6.29318 5.657472,12.58667 8.486428,18.88049"
       id="path4634"
       inkscape:connector-curvature="0"
       inkscape:path-effect="#path-effect4636"
       inkscape:original-d="m 28.627234,187.69394 c 2.82855,6.29323 5.657357,12.58672 8.486428,18.88049"
       sodipodi:nodetypes="cc" />
    <path
       style="fill:none;stroke:#ff0000;stroke-width:0.46499997;stroke-miterlimit:4;stroke-dasharray:none;stroke-opacity:1"
       d="m 34.625087,185.79552 c 1.556527,6.0224 3.113135,12.04512 4.669825,18.06816"
       id="path4638"
       inkscape:connector-curvature="0"
       inkscape:path-effect="#path-effect4640"
       inkscape:original-d="m 34.625087,185.79552 c 1.556348,6.02245 3.112956,12.04517 4.669825,18.06816" />
    <path
       style="fill:none;stroke:#ff0000;stroke-width:0.46499997;stroke-miterlimit:4;stroke-dasharray:none;stroke-opacity:1"
       d="m 74.552061,177.88765 c 0.05876,4.35872 0.117509,8.71624 0.176269,13.07479"
       id="path4642"
       inkscape:connector-curvature="0"
       inkscape:path-effect="#path-effect4644"
       inkscape:original-d="m 74.552061,177.88765 c 0.0851,4.35836 0.117253,8.71624 0.176269,13.07479" />
    <path
       style="fill:none;stroke:#ff0000;stroke-width:0.46499997;stroke-miterlimit:4;stroke-dasharray:none;stroke-opacity:1"
       d="m 80.148768,177.29275 c -0.698097,4.50732 -1.396224,9.01483 -2.094389,13.52258"
       id="path4646"
       inkscape:connector-curvature="0"
       inkscape:path-effect="#path-effect4648"
       inkscape:original-d="m 80.148768,177.29275 c -0.697878,4.50735 -1.396005,9.01486 -2.094389,13.52258"
       sodipodi:nodetypes="cc" />
    <path
       style="fill:none;stroke:#ff0000;stroke-width:0.46499997;stroke-miterlimit:4;stroke-dasharray:none;stroke-opacity:1"
       d="m 117.51134,177.61059 c -1.71965,4.58801 -3.43935,9.17617 -5.15911,13.76446"
       id="path4650"
       inkscape:connector-curvature="0"
       inkscape:path-effect="#path-effect4652"
       inkscape:original-d="m 117.51134,177.61059 c -1.71951,4.58806 -3.43921,9.17622 -5.15911,13.76446"
       sodipodi:nodetypes="cc" />
    <path
       style="fill:none;stroke:#ff0000;stroke-width:0.46499997;stroke-miterlimit:4;stroke-dasharray:none;stroke-opacity:1"
       d="m 113.54298,177.68399 c -1.45087,4.66008 -2.79145,8.96596 -4.18726,13.44919"
       id="path4654"
       inkscape:connector-curvature="0"
       inkscape:path-effect="#path-effect4656"
       inkscape:original-d="m 113.54298,177.68399 c -1.4507,4.66013 -2.79129,8.96601 -4.18726,13.44919"
       sodipodi:nodetypes="cc" />
    <path
       style="fill:none;stroke:#ff0000;stroke-width:0.46499997;stroke-miterlimit:4;stroke-dasharray:none;stroke-opacity:1"
       d="m 164.26489,183.72947 c -3.73059,4.69605 -7.4874,9.42511 -11.23114,14.13771"
       id="path4658"
       inkscape:connector-curvature="0"
       inkscape:path-effect="#path-effect4660"
       inkscape:original-d="m 164.26489,183.72947 c -3.74361,4.6857 -7.48769,9.42488 -11.23114,14.13771" />
    <path
       style="fill:none;stroke:#ff0000;stroke-width:0.46499997;stroke-miterlimit:4;stroke-dasharray:none;stroke-opacity:1"
       d="m 169.57402,185.24077 c -4.29714,4.78437 -8.59431,9.56876 -12.89149,14.35316"
       id="path4662"
       inkscape:connector-curvature="0"
       inkscape:path-effect="#path-effect4664"
       inkscape:original-d="m 169.57402,185.24077 c -4.29743,4.78411 -8.59459,9.56851 -12.89149,14.35316" />
    <path
       style="fill:none;stroke:#ff0000;stroke-width:0.46499997;stroke-miterlimit:4;stroke-dasharray:none;stroke-opacity:1"
       d="m 198.97901,212.47041 c -7.94037,0.95489 -15.88754,1.91059 -23.83096,2.86585"
       id="path4666"
       inkscape:connector-curvature="0"
       inkscape:path-effect="#path-effect4668"
       inkscape:original-d="m 198.97901,212.47041 c -7.94355,0.92842 -15.88757,1.91031 -23.83096,2.86585" />
    <path
       style="fill:none;stroke:#ff0000;stroke-width:0.46499997;stroke-miterlimit:4;stroke-dasharray:none;stroke-opacity:1"
       d="m 201.25063,219.86886 c -7.69342,0.68524 -15.38657,1.37045 -23.0795,2.05564"
       id="path4670"
       inkscape:connector-curvature="0"
       inkscape:path-effect="#path-effect4672"
       inkscape:original-d="m 201.25063,219.86886 c -7.69344,0.685 -15.38659,1.37021 -23.0795,2.05564"
       sodipodi:nodetypes="cc" />
    <path
       style="fill:none;stroke:#ff0000;stroke-width:0.46499997;stroke-miterlimit:4;stroke-dasharray:none;stroke-opacity:1"
       d="m 204.45803,243.93168 c -7.7084,-0.19633 -15.4165,-0.39265 -23.12428,-0.58897"
       id="path4674"
       inkscape:connector-curvature="0"
       inkscape:path-effect="#path-effect4676"
       inkscape:original-d="m 204.45803,243.93168 c -7.70839,-0.1966 -15.41649,-0.39293 -23.12428,-0.58897"
       sodipodi:nodetypes="cc" />
    <path
       style="fill:none;stroke:#ff0000;stroke-width:0.46499997;stroke-miterlimit:4;stroke-dasharray:none;stroke-opacity:1"
       d="m 202.93025,253.31819 c -7.39692,-1.13847 -14.79353,-2.27689 -18.47844,-2.84592 -3.68492,-0.56902 -3.65838,-0.56869 -3.63158,-0.56835"
       id="path4678"
       inkscape:connector-curvature="0"
       inkscape:path-effect="#path-effect4680"
       inkscape:original-d="m 202.93025,253.31819 c -7.39687,-1.13877 -14.79348,-2.27719 -22.18982,-3.41527 0.0268,-0.0265 0.053,4.6e-4 0.0798,0.001"
       sodipodi:nodetypes="ccc" />
    <path
       style="fill:none;stroke:#ff0000;stroke-width:0.46499997;stroke-miterlimit:4;stroke-dasharray:none;stroke-opacity:1"
       d="m 184.56328,291.23144 c -3.45593,-6.08887 -6.91168,-12.17741 -10.36725,-18.26564"
       id="path4682"
       inkscape:connector-curvature="0"
       inkscape:path-effect="#path-effect4684"
       inkscape:original-d="m 184.56328,291.23144 c -3.45601,-6.08882 -6.91177,-12.17736 -10.36725,-18.26564" />
    <path
       style="fill:#ffe680;stroke:#ff0000;stroke-width:0.46499997;stroke-miterlimit:4;stroke-dasharray:none;stroke-opacity:1"
       d="m 181.57428,291.76094 c -3.20186,-5.18463 -6.40351,-10.3689 -9.60495,-15.55285"
       id="path4686"
       inkscape:connector-curvature="0"
       inkscape:path-effect="#path-effect4688"
       inkscape:original-d="m 181.57428,291.76094 c -3.20155,-5.18482 -6.4032,-10.36909 -9.60495,-15.55285"
       sodipodi:nodetypes="cc" />
    <path
       style="fill:none;stroke:#ff0000;stroke-width:0.46499997;stroke-miterlimit:4;stroke-dasharray:none;stroke-opacity:1"
       d="m 88.20722,196.26887 6.718843,-19.45398 31.233867,-0.14326 11.25925,-51.25519 -69.3233,-0.84767 -1.96323,49.56402 37.31612,3.43503 -5.00441,20.77013 z"
       id="path4692"
       inkscape:connector-curvature="0" />
    <path
       style="fill:#00ff00;stroke:#ff0000;stroke-width:2.12106252;stroke-miterlimit:4;stroke-dasharray:none;stroke-opacity:1"
       d="m 393.78757,752.63881 -88.70546,-1.3763 -14.48253,-5.8457 c -15.83688,-6.39238 -63.62353,-30.45737 -75.9938,-38.2699 -4.3265,-2.73243 -12.99837,-10.39035 -19.59049,-17.29987 -36.15759,-37.89857 -52.85305,-78.7497 -54.31155,-132.89173 -0.85456,-31.72292 3.25076,-54.33207 14.04994,-77.37691 12.26552,-26.17394 24.78569,-37.4578 60.8447,-54.83658 46.97426,-22.63942 106.72743,-33.64548 174.82888,-32.20208 49.55627,1.05033 91.20753,8.69828 142.3971,26.14676 62.12085,21.17451 82.54889,34.81093 96.84788,64.64932 8.35813,17.4413 11.52511,33.56478 11.52511,58.67571 0,33.64352 -9.061,83.643 -21.09424,116.40009 -4.70288,12.80226 -21.18868,47.13806 -29.8046,62.07553 -4.82422,8.36376 -5.81704,9.34268 -13.06564,12.8826 -20.03377,9.78367 -59.93489,19.5678 -82.67108,20.27171 -6.63782,0.20552 -51.98622,-0.24569 -100.77422,-1.00265 z"
       id="path4874"
       inkscape:connector-curvature="0"
       transform="matrix(0.26458333,0,0,0.26458333,0,95)" />
    <path
       style="fill:#ffaaaa;stroke:#ff0000;stroke-width:2.12106252;stroke-miterlimit:4;stroke-dasharray:none;stroke-opacity:1"
       d="M 192.90486,740.86944 C 138.58216,699.78219 116.67082,675.23067 102.90705,640.02747 97.478496,626.14301 90.6743,600.60208 90.421816,593.16162 c -0.0901,-2.65513 -0.518472,-5.09905 -0.951939,-5.43094 -1.692749,-1.29608 -3.742968,-30.04471 -3.030583,-42.49553 2.381925,-41.6305 22.892926,-88.33455 52.538816,-119.63218 19.37206,-20.45137 30.02135,-29.54866 40.50704,-34.60361 16.18246,-7.80126 63.36495,-20.35934 93.01128,-24.75586 12.53234,-1.85854 65.77872,-4.28388 65.77604,-2.99606 -6.9e-4,0.32963 -1.42461,4.87332 -3.16429,10.09709 -2.25474,6.77035 -2.76847,9.74162 -1.789,10.34697 0.75573,0.46706 6.65963,1.86511 13.11978,3.10678 l 11.74573,2.25757 -20.51691,2.13461 c -61.42569,6.39083 -99.33752,16.98253 -138.79085,38.77498 -18.45516,10.1939 -26.12669,16.31934 -34.34407,27.42252 -24.53355,33.14929 -33.20903,85.01818 -22.91108,136.98054 7.48745,37.78089 24.96753,70.65723 52.63125,98.98829 5.19828,5.32368 11.35224,11.1094 13.67548,12.85716 8.77573,6.60196 61.85188,33.99459 79.25257,40.90229 5.19909,2.06392 9.67918,3.97694 9.95576,4.25115 0.27656,0.27421 -19.81794,0.47837 -44.65445,0.4537 l -45.15732,-0.0449 z"
       id="path4876"
       inkscape:connector-curvature="0"
       transform="matrix(0.26458333,0,0,0.26458333,0,95)" />
    <path
       style="fill:#ffaaaa;stroke:#ff0000;stroke-width:2.12106252;stroke-miterlimit:4;stroke-dasharray:none;stroke-opacity:1"
       d="m 590.70967,725.60245 c 0.22125,-0.5055 4.35802,-8.08007 9.1928,-16.83237 23.48567,-42.51553 36.99863,-86.2068 42.54704,-137.56684 1.86431,-17.25731 0.86416,-54.52338 -1.76985,-65.94588 C 636.17849,485.73791 627.877,470.59432 614.06607,456.70883 602.5114,445.09181 592.48118,438.89261 570.18758,429.58967 512.14576,405.3693 452.46076,391.72652 392.88241,389.06133 c -10.12268,-0.45283 -18.40488,-1.30553 -18.40488,-1.89489 0,-2.26758 5.20704,-22.15533 6.04725,-23.09685 1.99457,-2.23508 85.72678,4.08014 126.70922,9.55662 58.49668,7.81689 81.16813,16.31817 116.64541,43.73937 36.63372,28.31504 51.17911,54.67037 57.72308,104.5906 2.11454,16.1306 2.43312,51.84931 0.59771,67.01303 -3.34012,27.59518 -12.21553,58.7024 -22.44337,78.66126 -4.74903,9.26736 -7.76814,13.23236 -17.3522,22.78872 -10.98524,10.95349 -28.88173,23.99884 -45.10858,32.88116 -6.25752,3.42528 -7.22621,3.76385 -6.58638,2.3021 z"
       id="path4878"
       inkscape:connector-curvature="0"
       transform="matrix(0.26458333,0,0,0.26458333,0,95)" />
    <path
       style="fill:#999999;stroke:#b3b3b3;stroke-width:0.46499997;stroke-miterlimit:4;stroke-dasharray:none;stroke-opacity:1"
       d="m 47.259292,288.37836 -38.3529639,6.483"
       id="path4914"
       inkscape:connector-curvature="0" />
    <path
       style="fill:#ffe680;stroke:#b3b3b3;stroke-width:1.49981773;stroke-miterlimit:4;stroke-dasharray:none;stroke-opacity:1"
       d="M 20.807839,470.26414 6.5250974,460.29771 6.5135415,445.0789 c -0.00636,-8.37034 0.3235177,-15.09079 0.7330521,-14.93434 0.4095344,0.15646 9.5702054,7.38641 20.3570464,16.06657 l 19.612438,15.78212 -4.293729,6.83274 c -2.36155,3.75802 -4.897774,7.8864 -5.636053,9.17418 -0.738278,1.28779 -1.534337,2.31645 -1.769019,2.28591 -0.234683,-0.0305 -6.853929,-4.54041 -14.709438,-10.02194 z"
       id="path4916"
       inkscape:connector-curvature="0"
       transform="matrix(0.26458333,0,0,0.26458333,0,95)" />
    <path
       style="fill:#ffe680;stroke:#b3b3b3;stroke-width:1.49981773;stroke-miterlimit:4;stroke-dasharray:none;stroke-opacity:1"
       d="m 53.438486,492.67105 c -7.744523,-5.36032 -14.208061,-10.34017 -14.363419,-11.06634 -0.394375,-1.84337 9.43003,-17.50412 10.700434,-17.05719 0.566866,0.19942 6.396956,4.65717 12.955756,9.90611 l 11.925092,9.54352 -3.034086,8.63166 c -1.668747,4.74741 -3.274553,8.8919 -3.568457,9.20997 -0.293904,0.31807 -6.870798,-3.8074 -14.61532,-9.16773 z"
       id="path4918"
       inkscape:connector-curvature="0"
       transform="matrix(0.26458333,0,0,0.26458333,0,95)" />
    <path
       style="fill:#ffe680;stroke:#b3b3b3;stroke-width:1.49981773;stroke-miterlimit:4;stroke-dasharray:none;stroke-opacity:1"
       d="m 78.864613,510.33363 c -4.555546,-3.11278 -8.299799,-5.95379 -8.320561,-6.31335 -0.02076,-0.35956 1.348329,-4.66629 3.042424,-9.5705 l 3.080171,-8.91675 8.037735,6.54613 c 5.666632,4.61505 7.886993,6.93482 7.526742,7.86372 -0.281046,0.72468 -1.452432,4.55839 -2.603079,8.51938 -1.150648,3.96098 -2.179506,7.27585 -2.286352,7.36638 -0.106847,0.0905 -3.921532,-2.38223 -8.47708,-5.49501 z"
       id="path4920"
       inkscape:connector-curvature="0"
       transform="matrix(0.26458333,0,0,0.26458333,0,95)" />
    <path
       style="fill:#ffe680;stroke:#b3b3b3;stroke-width:1.49981773;stroke-miterlimit:4;stroke-dasharray:none;stroke-opacity:1"
       d="m 70.928045,619.26273 c -1.478828,-4.08078 -5.503711,-24.07065 -4.94841,-24.57664 0.683324,-0.62265 20.088655,-4.22663 20.563797,-3.81913 0.372871,0.31978 4.504496,20.15528 4.700978,22.5689 0.159585,1.96037 -0.325453,2.20647 -7.937242,4.02732 -4.458968,1.06665 -8.979706,2.15264 -10.046083,2.41331 -1.169246,0.28581 -2.095333,0.0422 -2.33304,-0.61376 z"
       id="path4922"
       inkscape:connector-curvature="0"
       transform="matrix(0.26458333,0,0,0.26458333,0,95)" />
    <path
       style="fill:#ffe680;stroke:#b3b3b3;stroke-width:1.49981773;stroke-miterlimit:4;stroke-dasharray:none;stroke-opacity:1"
       d="m 46.240329,624.4397 c -0.243373,-1.09875 -1.228487,-6.60603 -2.189143,-12.23841 -0.960656,-5.63238 -1.917984,-11.02895 -2.127394,-11.99239 -0.350689,-1.6134 0.341441,-1.87089 8.767189,-3.26165 5.031365,-0.83047 9.75287,-1.6789 10.492233,-1.88539 1.091342,-0.30479 1.877277,1.91477 4.176756,11.79556 1.557852,6.69405 2.993549,12.60779 3.190436,13.14165 0.227406,0.6166 -3.319353,1.8247 -9.723796,3.31212 -5.544976,1.28782 -10.545727,2.51805 -11.11278,2.73386 -0.567053,0.2158 -1.230129,-0.5066 -1.473501,-1.60535 z"
       id="path4924"
       inkscape:connector-curvature="0"
       transform="matrix(0.26458333,0,0,0.26458333,0,95)" />
    <path
       style="fill:#ff0000;stroke:#ff0000;stroke-width:1.49981773;stroke-miterlimit:4;stroke-dasharray:none;stroke-opacity:1"
       d="m 19.309483,631.61593 c 0.0036,-0.35202 -0.820122,-6.69674 -1.8306,-14.09936 -1.010478,-7.40263 -1.588619,-13.70794 -1.284758,-14.0118 0.912312,-0.91231 22.236606,-4.5267 22.797612,-3.8641 0.28553,0.33723 1.384479,5.7975 2.442109,12.13392 1.057629,6.33643 2.101451,12.30763 2.319603,13.26933 0.362675,1.59882 -0.581489,1.98248 -11.025818,4.48031 -12.128281,2.90055 -13.428632,3.10325 -13.418148,2.0917 z"
       id="path4926"
       inkscape:connector-curvature="0"
       transform="matrix(0.26458333,0,0,0.26458333,0,95)" />
    <path
       style="fill:#ffdd55;stroke:#ff0000;stroke-width:1.49981773;stroke-miterlimit:4;stroke-dasharray:none;stroke-opacity:1"
       d="M 32.5414,736.58301 C 31.973507,719.9189 31.517573,716.30979 24.806219,675.35222 20.883773,651.4146 15.565209,616.66026 12.987186,598.12034 L 8.2998726,564.4114 6.4707256,507.25366 c -1.843673,-57.61167 -1.9789301,-88.38525 -0.3954355,-89.9692 0.5689507,-0.56911 0.8533909,1.12295 0.8533909,5.07662 0,3.26164 -0.2880194,5.9312 -0.6400432,5.93236 -0.3520237,0.001 -0.6400432,7.49061 -0.6400432,16.64323 0,9.15262 0.2880195,16.6406 0.6400432,16.63996 0.3520238,-6.4e-4 0.502788,2.20751 0.3350316,4.907 -0.1677564,2.69949 0.3221967,25.26153 1.0887845,50.13788 1.2627199,40.97619 1.6413405,47.07558 4.0260521,64.85771 1.447741,10.79539 2.709258,19.71535 2.803372,19.82212 0.174576,0.19805 24.760133,-4.07408 24.883332,-4.32387 0.03722,-0.0755 -0.494121,-25.48293 -1.180762,-56.46102 -1.062937,-47.95481 -1.441354,-56.5457 -2.546765,-57.81723 -1.164553,-1.33956 -1.160133,-1.49344 0.04291,-1.49344 0.73768,0 1.534933,-0.48003 1.771674,-1.06674 0.236741,-0.5867 0.460756,-0.32892 0.497812,0.57285 0.03705,0.90177 0.739418,2.40699 1.560806,3.34492 1.422319,1.62413 1.422319,1.6794 0,1.16072 -1.350956,-0.49266 -1.490917,0.16522 -1.467057,6.89577 0.02064,5.82314 2.359453,103.20331 2.499888,104.08691 0.01865,0.11734 1.089979,0.24367 2.380733,0.28072 l 2.346825,0.0673 -2.346825,0.85714 c -1.290754,0.47142 -2.346825,1.17775 -2.346825,1.56962 0,0.39186 -0.257273,1.38292 -0.57172,2.20235 -0.420768,1.09651 -0.272941,1.30522 0.559887,0.79051 0.891994,-0.55129 1.023757,-0.0348 0.622269,2.4393 -0.345844,2.13119 -0.21483,2.95665 0.408156,2.57163 0.607696,-0.37558 0.784609,0.33834 0.523946,2.11435 -0.21645,1.47477 -0.03245,2.6814 0.408904,2.6814 0.441347,0 0.636337,1.13179 0.43331,2.5151 -0.220298,1.50099 -0.0336,2.30774 0.463028,2.0008 0.515783,-0.31877 0.63852,0.67899 0.322829,2.62436 -0.303849,1.8724 -0.185437,2.93849 0.293504,2.64249 0.441563,-0.2729 0.808722,0.39054 0.81591,1.47431 0.01551,2.33816 0.797627,3.66937 2.547104,4.33534 1.111929,0.42327 1.106414,0.49613 -0.04199,0.55465 -0.939684,0.0479 -1.281544,0.86957 -1.181948,2.8409 0.07796,1.543 -0.02538,1.89926 -0.232909,0.80299 -0.205169,-1.08379 -0.860045,-2.15742 -1.455282,-2.38583 -1.200395,-0.46063 -23.580649,4.61246 -24.633731,5.58391 -0.365224,0.33691 2.394638,19.20782 6.133026,41.93535 6.426741,39.07139 6.830259,42.31083 7.406247,59.45735 0.335048,9.97401 0.40162,18.13456 0.147937,18.13456 -0.253681,0 -0.732798,-7.96854 -1.064703,-17.70786 z M 22.092611,632.54959 c -0.577773,-0.23376 -1.729851,-0.24798 -2.560172,-0.0317 -0.830322,0.21637 -0.357598,0.40763 1.050497,0.42502 1.408095,0.0174 2.087448,-0.15963 1.509675,-0.3934 z m 22.420361,-5.47074 c 0.904538,-1.46357 0.09451,-1.60718 -1.692975,-0.30014 -1.384273,1.0122 -1.427219,1.21031 -0.262371,1.21031 0.766057,0 1.645962,-0.40958 1.955346,-0.91017 z M 16.45447,611.56125 c -0.236742,-0.58671 -0.430438,-0.10668 -0.430438,1.06673 0,1.17342 0.193696,1.65345 0.430438,1.06674 0.236741,-0.5867 0.236741,-1.54677 0,-2.13347 z m -0.403217,-6.18709 c 0.191785,-1.64278 0.04179,-2.98687 -0.333329,-2.98687 -0.375116,0 -0.682029,1.34409 -0.682029,2.98687 0,1.64278 0.149998,2.98687 0.333329,2.98687 0.183331,0 0.490244,-1.34409 0.682029,-2.98687 z m 3.873861,-3.50246 c -0.283575,-0.28357 -1.019625,-0.31389 -1.635667,-0.0673 -0.680778,0.27242 -0.478561,0.47464 0.515591,0.51558 0.899616,0.037 1.40365,-0.16464 1.120076,-0.44822 z m 15.361036,-2.56017 c -0.283575,-0.28358 -1.019625,-0.31389 -1.635666,-0.0673 -0.680778,0.27242 -0.478561,0.47464 0.515591,0.51559 0.899615,0.037 1.403649,-0.16465 1.120075,-0.44822 z m 4.498081,-0.3378 c 0,-0.46937 -0.672045,-0.84751 -1.493434,-0.84033 -1.276286,0.0112 -1.307307,0.13335 -0.213348,0.84033 1.610531,1.0408 1.706782,1.0408 1.706782,0 z"
       id="path4928"
       inkscape:connector-curvature="0"
       transform="matrix(0.26458333,0,0,0.26458333,0,95)" />
    <path
       style="fill:#ffdd55;stroke:#ff0000;stroke-width:1.49981773;stroke-miterlimit:4;stroke-dasharray:none;stroke-opacity:1"
       d="m 78.162164,744.32083 c -0.483655,-1.32227 -1.04392,-2.87368 -1.245033,-3.44759 -0.218114,-0.62241 0.911237,-1.37635 2.798841,-1.86846 1.740475,-0.45374 5.660669,-1.45621 8.711541,-2.22771 3.050873,-0.77149 11.558503,-3.09889 18.905847,-5.17201 7.34734,-2.07312 13.70917,-3.7693 14.13739,-3.7693 0.84603,0 5.89708,10.02959 5.29817,10.5203 -0.20103,0.16471 -10.35019,1.92389 -22.55368,3.90928 -12.203485,1.9854 -22.859906,3.80101 -23.680931,4.03471 -1.057727,0.30107 -1.74905,-0.27574 -2.372145,-1.97922 z"
       id="path4930"
       inkscape:connector-curvature="0"
       transform="matrix(0.26458333,0,0,0.26458333,0,95)" />
    <path
       style="fill:#ffdd55;stroke:#ff0000;stroke-width:1.49981773;stroke-miterlimit:4;stroke-dasharray:none;stroke-opacity:1"
       d="m 34.663886,750.35315 c 0,-3.47722 0.142428,-3.68779 2.77352,-4.10047 1.525436,-0.23926 9.493974,-1.46379 17.707861,-2.72119 8.213888,-1.2574 15.915957,-2.45579 17.115709,-2.6631 1.889011,-0.3264 2.309327,0.04 3.136109,2.73391 0.721042,2.34937 0.709319,3.19804 -0.04789,3.46713 -0.551446,0.19597 -9.931231,1.8397 -20.843968,3.65273 l -19.841338,3.29643 z"
       id="path4932"
       inkscape:connector-curvature="0"
       transform="matrix(0.26458333,0,0,0.26458333,0,95)" />
    <path
       style="fill:#ffdd55;stroke:#ff0000;stroke-width:1.49981773;stroke-miterlimit:4;stroke-dasharray:none;stroke-opacity:1"
       d="m 127.7191,733.02664 c -1.42768,-2.82821 -2.59578,-5.44377 -2.59578,-5.81234 0,-0.36857 7.20049,-2.56382 16.00108,-4.87833 8.8006,-2.31451 16.20503,-4.50271 16.45429,-4.86266 0.24927,-0.35995 4.18271,2.37049 8.74098,6.06766 7.90422,6.41102 8.17944,6.74429 5.94722,7.20145 -1.2873,0.26363 -10.5971,1.84298 -20.68845,3.50965 -10.09135,1.66668 -19.00393,3.22978 -19.80573,3.47356 -1.10424,0.33573 -2.08741,-0.80397 -4.05361,-4.69899 z"
       id="path4934"
       inkscape:connector-curvature="0"
       transform="matrix(0.26458333,0,0,0.26458333,0,95)" />
    <path
       style="fill:#ffdd55;stroke:#ff0000;stroke-width:1.49981773;stroke-miterlimit:4;stroke-dasharray:none;stroke-opacity:1"
       d="m 115.76338,364.02761 c -1.83515,-3.97217 -3.89028,-8.54719 -4.56697,-10.16672 l -1.23033,-2.9446 8.66345,-2.65169 c 4.7649,-1.45842 9.27494,-2.88633 10.02232,-3.17313 1.10575,-0.42432 1.70523,0.87816 3.2183,6.99233 1.02269,4.13258 2.04803,8.1448 2.27853,8.91604 0.39282,1.3144 -0.92253,2.21715 -14.38384,9.87183 -0.36566,0.20793 -2.16632,-2.8719 -4.00146,-6.84406 z"
       id="path4936"
       inkscape:connector-curvature="0"
       transform="matrix(0.26458333,0,0,0.26458333,0,95)" />
    <path
       style="fill:#ffdd55;stroke:#ff0000;stroke-width:1.49981773;stroke-miterlimit:4;stroke-dasharray:none;stroke-opacity:1"
       d="m 132.94087,402.08037 c -1.29829,-2.45183 -12.11981,-26.77378 -12.32442,-27.69979 -0.10273,-0.46494 3.07744,-2.73112 7.06704,-5.03596 6.40884,-3.70246 7.3252,-4.0172 7.86655,-2.70187 0.337,0.8188 2.1988,7.7807 4.13734,15.47087 l 3.52461,13.98212 -2.43055,2.02899 c -6.36731,5.31532 -6.96179,5.61524 -7.84057,3.95564 z"
       id="path4938"
       inkscape:connector-curvature="0"
       transform="matrix(0.26458333,0,0,0.26458333,0,95)" />
    <path
       style="fill:#ffdd55;stroke:#ff0000;stroke-width:1.49981773;stroke-miterlimit:4;stroke-dasharray:none;stroke-opacity:1"
       d="m 137.89595,413.3111 c -1.46493,-3.25799 -2.72992,-6.14384 -2.81107,-6.41298 -0.28565,-0.94731 8.19858,-7.71935 8.81107,-7.03293 0.34115,0.38234 1.27078,3.35612 2.06584,6.6084 l 1.44556,5.91326 -3.42394,3.42394 -3.42395,3.42395 z"
       id="path4940"
       inkscape:connector-curvature="0"
       transform="matrix(0.26458333,0,0,0.26458333,0,95)" />
    <path
       style="fill:#ffdd55;stroke:#ff0000;stroke-width:1.49981773;stroke-miterlimit:4;stroke-dasharray:none;stroke-opacity:1"
       d="m 283.00064,320.98238 v -6.79807 l 5.24553,-0.54827 c 2.88504,-0.30155 6.95502,-0.54827 9.0444,-0.54827 h 3.79886 l -0.58662,5.3337 c -0.32703,2.97334 -1.12589,5.75771 -1.8052,6.29185 -0.67021,0.52699 -3.61215,1.22255 -6.53764,1.54569 -2.92549,0.32314 -6.18313,0.79766 -7.2392,1.05448 -1.86963,0.45468 -1.92013,0.28817 -1.92013,-6.33111 z"
       id="path4942"
       inkscape:connector-curvature="0"
       transform="matrix(0.26458333,0,0,0.26458333,0,95)" />
    <path
       style="fill:#ffdd55;stroke:#ff0000;stroke-width:1.49981773;stroke-miterlimit:4;stroke-dasharray:none;stroke-opacity:1"
       d="m 283.55644,344.21306 c -0.30569,-2.23025 -0.5558,-6.28815 -0.5558,-9.01756 0,-4.93726 0.0142,-4.96487 2.77352,-5.41403 1.52544,-0.2483 5.04669,-0.84073 7.82501,-1.31649 2.77832,-0.47577 5.12929,-0.77005 5.22438,-0.65395 0.64667,0.78957 -2.70247,18.58123 -3.5597,18.91018 -0.57963,0.22242 -3.32587,0.66146 -6.10275,0.97562 l -5.04886,0.57122 z"
       id="path4944"
       inkscape:connector-curvature="0"
       transform="matrix(0.26458333,0,0,0.26458333,0,95)" />
    <path
       style="fill:#ffdd55;stroke:#ff0000;stroke-width:1.49981773;stroke-miterlimit:4;stroke-dasharray:none;stroke-opacity:1"
       d="m 283.85403,356.34156 v -5.38949 l 6.0017,-0.82952 6.0017,-0.82953 -0.42234,2.16541 c -0.23228,1.19098 -0.67249,3.98954 -0.97825,6.21902 l -0.55591,4.05361 h -5.02345 -5.02345 z"
       id="path4948"
       inkscape:connector-curvature="0"
       transform="matrix(0.26458333,0,0,0.26458333,0,95)" />
    <path
       style="fill:#ffdd55;stroke:#ff0000;stroke-width:1.49981773;stroke-miterlimit:4;stroke-dasharray:none;stroke-opacity:1"
       d="m 431.70401,325.25117 c -4.95141,-0.3372 -5.01729,-0.4604 -3.31005,-6.18966 l 1.14434,-3.84026 4.93423,-0.25945 c 7.31975,-0.38488 7.47119,-0.22696 5.25902,5.48417 -2.0986,5.41793 -1.78516,5.23032 -8.02754,4.8052 z"
       id="path4950"
       inkscape:connector-curvature="0"
       transform="matrix(0.26458333,0,0,0.26458333,0,95)" />
    <path
       style="fill:#ffdd55;stroke:#ff0000;stroke-width:1.49981773;stroke-miterlimit:4;stroke-dasharray:none;stroke-opacity:1"
       d="m 421.21605,343.1698 c -0.0187,-0.35202 1.03741,-4.15345 2.34682,-8.44761 l 2.38075,-7.80757 4.69365,0.44867 c 2.58151,0.24676 4.96746,0.69295 5.30212,0.99153 0.33466,0.29858 -0.62541,3.89533 -2.13348,7.99277 l -2.74195,7.44989 -4.90699,0.006 c -2.69885,0.003 -4.92227,-0.28183 -4.94092,-0.63386 z"
       id="path4952"
       inkscape:connector-curvature="0"
       transform="matrix(0.26458333,0,0,0.26458333,0,95)" />
    <path
       style="fill:#ffdd55;stroke:#ff0000;stroke-width:1.49981773;stroke-miterlimit:4;stroke-dasharray:none;stroke-opacity:1"
       d="m 415.27623,362.07062 c 0,-0.33167 1.01946,-3.99999 2.26547,-8.15182 l 2.26547,-7.54878 h 5.04586 c 5.74743,0 5.58879,-0.90999 1.63648,9.3873 l -2.45662,6.40043 -4.37833,0.25795 c -2.40808,0.14187 -4.37833,-0.0134 -4.37833,-0.34508 z"
       id="path4954"
       inkscape:connector-curvature="0"
       transform="matrix(0.26458333,0,0,0.26458333,0,95)" />
    <path
       style="fill:#ffdd55;stroke:#ff0000;stroke-width:1.49981773;stroke-miterlimit:4;stroke-dasharray:none;stroke-opacity:1"
       d="m 616.56132,355.00633 -6.51561,-3.98274 5.09009,-6.38039 c 2.79955,-3.50922 5.35316,-6.65483 5.67469,-6.99025 0.50199,-0.52367 16.17235,3.2308 17.10979,4.09935 0.18465,0.17108 -2.31152,3.24527 -5.54704,6.83155 -3.23551,3.58628 -6.65081,7.39457 -7.58954,8.46286 l -1.70678,1.94236 z"
       id="path4956"
       inkscape:connector-curvature="0"
       transform="matrix(0.26458333,0,0,0.26458333,0,95)" />
    <path
       style="fill:#ffdd55;stroke:#ff0000;stroke-width:1.49981773;stroke-miterlimit:4;stroke-dasharray:none;stroke-opacity:1"
       d="m 595.34171,379.90008 c -3.05087,-1.22606 -5.6725,-2.32488 -5.82585,-2.44183 -0.15335,-0.11694 4.01454,-5.63681 9.26197,-12.26637 l 9.54078,-12.05375 3.96559,2.32456 c 2.18108,1.27851 5.01902,2.92389 6.30655,3.65642 1.28753,0.73252 2.22969,1.67358 2.0937,2.09124 -0.4683,1.43821 -18.09017,20.8815 -18.9423,20.9002 -0.46937,0.0103 -3.34956,-0.98442 -6.40044,-2.21047 z"
       id="path4958"
       inkscape:connector-curvature="0"
       transform="matrix(0.26458333,0,0,0.26458333,0,95)" />
    <path
       style="fill:#ffdd55;stroke:#ff0000;stroke-width:1.49981773;stroke-miterlimit:4;stroke-dasharray:none;stroke-opacity:1"
       d="m 587.2345,390.59218 c -2.81619,-1.43562 -5.26837,-2.7443 -5.44929,-2.90817 -0.34172,-0.30953 1.20992,-2.72045 4.01169,-6.23329 l 1.62849,-2.0418 6.09164,2.38998 c 3.3504,1.31448 6.07688,2.61732 6.05885,2.89519 -0.018,0.27787 -1.65014,2.30591 -3.62691,4.50677 l -3.59412,4.00154 z"
       id="path4960"
       inkscape:connector-curvature="0"
       transform="matrix(0.26458333,0,0,0.26458333,0,95)" />
    <path
       style="fill:#ffdd55;stroke:#ff0000;stroke-width:1.49981773;stroke-miterlimit:4;stroke-dasharray:none;stroke-opacity:1"
       d="m 736.58638,471.69333 c -0.23779,-0.63521 -2.12141,-6.20494 -4.1858,-12.37717 l -3.75346,-11.22223 8.65905,-1.04064 c 4.76247,-0.57235 9.60568,-1.09072 10.76269,-1.15194 1.95935,-0.10366 2.40316,0.73748 6.47027,12.26288 l 4.36662,12.37417 -4.25543,0.5629 c -11.79702,1.5605 -17.62983,1.75167 -18.06394,0.59203 z"
       id="path4962"
       inkscape:connector-curvature="0"
       transform="matrix(0.26458333,0,0,0.26458333,0,95)" />
    <path
       style="fill:#ffdd55;stroke:#ff0000;stroke-width:1.49981773;stroke-miterlimit:4;stroke-dasharray:none;stroke-opacity:1"
       d="m 694.76665,466.91149 c -1.76805,-5.04568 -3.74591,-10.22136 -4.39524,-11.50152 -1.10357,-2.17569 -1.05453,-2.35457 0.75148,-2.74146 2.7723,-0.59387 31.00138,-3.89158 33.3128,-3.89158 1.73576,0 2.35561,1.25701 5.91565,11.99658 2.70513,8.16059 3.65422,12.09308 2.96816,12.29834 -1.05374,0.31527 -31.56166,3.02674 -33.96111,3.01838 -0.9811,-0.003 -2.30149,-2.64283 -4.59174,-9.17874 z"
       id="path4964"
       inkscape:connector-curvature="0"
       transform="matrix(0.26458333,0,0,0.26458333,0,95)" />
    <path
       style="fill:#ffdd55;stroke:#ff0000;stroke-width:1.49981773;stroke-miterlimit:4;stroke-dasharray:none;stroke-opacity:1"
       d="m 672.2026,472.04944 c -1.51575,-3.64726 -3.87647,-8.64171 -5.24606,-11.09876 -1.36959,-2.45706 -2.49016,-4.62201 -2.49016,-4.811 0,-0.18899 3.93626,-0.79413 8.74725,-1.34476 4.811,-0.55063 9.78694,-1.19678 11.05765,-1.43589 2.02552,-0.38115 2.48263,-0.0328 3.70739,2.82527 1.99552,4.65667 7.20978,19.0007 7.20978,19.83354 0,0.38562 -3.93626,0.96444 -8.74726,1.28628 -4.81099,0.32184 -9.36273,0.76326 -10.11497,0.98093 -1.03029,0.29813 -2.04765,-1.24029 -4.12362,-6.23561 z"
       id="path4966"
       inkscape:connector-curvature="0"
       transform="matrix(0.26458333,0,0,0.26458333,0,95)" />
    <path
       style="fill:#ffdd55;stroke:#ff0000;stroke-width:1.49981773;stroke-miterlimit:4;stroke-dasharray:none;stroke-opacity:1"
       d="m 696.20394,586.17693 c -5.30855,-0.84089 -9.86801,-1.745 -10.13215,-2.00913 -0.26414,-0.26414 -0.2024,-5.29742 0.13718,-11.18507 l 0.61743,-10.70481 h 11.43485 11.43485 l -0.0166,3.62691 c -0.009,1.9948 -0.57298,7.46717 -1.25302,12.16082 -0.68004,4.69365 -1.24861,8.82193 -1.2635,9.17395 -0.0149,0.35203 -0.31508,0.60094 -0.6671,0.55313 -0.35202,-0.0478 -4.9834,-0.77491 -10.29194,-1.6158 z"
       id="path4968"
       inkscape:connector-curvature="0"
       transform="matrix(0.26458333,0,0,0.26458333,0,95)" />
    <path
       style="fill:#ffdd55;stroke:#ff0000;stroke-width:1.49981773;stroke-miterlimit:4;stroke-dasharray:none;stroke-opacity:1"
       d="m 725.70191,590.47209 c -8.32862,-1.26418 -15.32769,-2.48325 -15.55349,-2.70905 -0.2258,-0.22579 0.1486,-4.61222 0.83199,-9.74761 0.6834,-5.13539 1.25004,-10.68817 1.2592,-12.3395 l 0.0167,-3.00241 15.14769,0.32023 c 8.33123,0.17613 15.20499,0.37514 15.27503,0.44224 0.07,0.0671 0.40714,6.74646 0.7491,14.84301 0.59458,14.0774 0.5517,14.71598 -0.98073,14.60629 -0.88137,-0.0631 -8.41682,-1.14902 -16.74545,-2.4132 z"
       id="path4970"
       inkscape:connector-curvature="0"
       transform="matrix(0.26458333,0,0,0.26458333,0,95)" />
    <path
       style="fill:#ffdd55;stroke:#ff0000;stroke-width:1.49981773;stroke-miterlimit:4;stroke-dasharray:none;stroke-opacity:1"
       d="m 656.9344,693.7385 -5.23224,-8.55096 3.53627,-4.72861 3.53627,-4.72861 5.05917,9.0544 5.05917,9.0544 -2.42668,3.91583 c -1.33467,2.1537 -2.84811,4.05503 -3.3632,4.22516 -0.51509,0.17014 -3.29104,-3.53859 -6.16876,-8.24161 z"
       id="path4974"
       inkscape:connector-curvature="0"
       transform="matrix(0.26458333,0,0,0.26458333,0,95)" />
    <path
       style="fill:#ffdd55;stroke:#ff0000;stroke-width:1.49981773;stroke-miterlimit:4;stroke-dasharray:none;stroke-opacity:1"
       d="m 670.57994,715.84352 -6.2606,-10.24406 2.72265,-4.24289 c 1.49746,-2.33359 2.97064,-4.24155 3.27374,-4.23992 0.30309,0.002 3.39424,5.02536 6.86921,11.16384 l 6.31813,11.16086 -3.33126,3.32312 -3.33126,3.32311 z"
       id="path4976"
       inkscape:connector-curvature="0"
       transform="matrix(0.26458333,0,0,0.26458333,0,95)" />
    <path
       style="fill:#ffdd55;stroke:#ff0000;stroke-width:1.49981773;stroke-miterlimit:4;stroke-dasharray:none;stroke-opacity:1"
       d="m 682.9381,735.91998 c -2.18024,-3.53288 -3.96408,-6.72177 -3.96408,-7.08641 0,-0.87587 5.85501,-6.53495 6.26963,-6.05983 0.48875,0.56008 9.9448,17.10725 9.9448,17.40245 0,0.23217 -7.08456,2.16721 -7.9346,2.16721 -0.19342,0 -2.13551,-2.89054 -4.31575,-6.42342 z"
       id="path4978"
       inkscape:connector-curvature="0"
       transform="matrix(0.26458333,0,0,0.26458333,0,95)" />
    <path
       style="fill:#ffdd55;stroke:#ff0000;stroke-width:0.26513281;stroke-miterlimit:4;stroke-dasharray:none;stroke-opacity:1"
       d="m 756.36864,595.7986 c -5.55918,-0.86111 -10.26034,-1.6023 -10.44703,-1.64709 l -0.33944,-0.0814 V 578.5879 563.10569 l 2.82862,0.0962 c 1.55574,0.0529 7.24126,0.20644 12.6345,0.34116 5.39323,0.13471 9.833,0.26986 9.86615,0.30033 0.0332,0.0305 -0.0531,4.75771 -0.1918,10.50499 l -0.25209,10.44961 -1.86046,6.25332 c -1.02326,3.43933 -1.92131,6.26675 -1.99566,6.28315 -0.0744,0.0164 -4.68362,-0.67472 -10.24279,-1.53583 z"
       id="path4980"
       inkscape:connector-curvature="0"
       transform="matrix(0.26458333,0,0,0.26458333,0,95)" />
    <path
       style="fill:#666666;stroke:#ff0000;stroke-width:1.06053126;stroke-miterlimit:4;stroke-dasharray:none;stroke-opacity:1"
       d="m 352.40196,385.48882 c -9.38344,-1.91054 -17.14713,-3.5807 -17.25266,-3.71147 -0.10552,-0.13077 1.29476,-4.51464 3.11174,-9.74193 l 3.30359,-9.50415 16.66454,0.0602 c 9.1655,0.0331 17.23762,0.23674 17.93804,0.45258 1.25932,0.38806 1.23927,0.53524 -1.80052,13.21549 -2.3603,9.84582 -3.28645,12.80914 -3.98897,12.76305 -0.50323,-0.033 -8.59232,-1.62319 -17.97576,-3.53372 z"
       id="path4982"
       inkscape:connector-curvature="0"
       transform="matrix(0.26458333,0,0,0.26458333,0,95)" />
    <path
       style="fill:#666666;stroke:#ff0000;stroke-width:1.06053126;stroke-miterlimit:4;stroke-dasharray:none;stroke-opacity:1"
       d="m 356.8811,360.26877 c -11.09038,-0.13361 -14.32813,-0.34389 -14.11365,-0.91662 0.15309,-0.40878 1.31832,-3.91218 2.58942,-7.78534 2.05905,-6.27413 2.47948,-7.07475 3.85519,-7.34148 1.70671,-0.3309 32.62119,0.25482 32.62119,0.61806 0,0.12509 -0.83711,3.74872 -1.86025,8.0525 l -1.86025,7.82506 -3.41983,-0.1394 c -1.88091,-0.0767 -9.89623,-0.21743 -17.81182,-0.31278 z"
       id="path4984"
       inkscape:connector-curvature="0"
       transform="matrix(0.26458333,0,0,0.26458333,0,95)" />
    <path
       style="fill:#666666;stroke:#ff0000;stroke-width:1.06053126;stroke-miterlimit:4;stroke-dasharray:none;stroke-opacity:1"
       d="m 351.79652,332.97214 3.11182,-9.06094 8.48409,-0.002 c 4.66625,-10e-4 11.91563,-0.17747 16.10973,-0.39139 l 7.62564,-0.38894 -2.21506,9.29211 -2.21506,9.2921 -17.00649,0.16022 -17.00649,0.16023 z"
       id="path4986"
       inkscape:connector-curvature="0"
       transform="matrix(0.26458333,0,0,0.26458333,0,95)" />
    <path
       style="fill:#666666;stroke:#ff0000;stroke-width:1.06053126;stroke-miterlimit:4;stroke-dasharray:none;stroke-opacity:1"
       d="m 355.88455,321.47016 c 4.6e-4,-0.18096 0.77059,-2.62489 1.71138,-5.43095 1.50626,-4.49269 1.89574,-5.12407 3.26157,-5.28734 1.42736,-0.17062 28.31773,2.14801 28.54327,2.46116 0.0547,0.0759 -0.28066,1.80804 -0.74518,3.84919 l -0.84458,3.71119 -7.96725,0.36882 c -11.62555,0.53818 -23.9602,0.707 -23.95921,0.32793 z"
       id="path4988"
       inkscape:connector-curvature="0"
       transform="matrix(0.26458333,0,0,0.26458333,0,95)" />
  </g>
</svg>
