<?xml version="1.0" encoding="UTF-8" standalone="no"?>
<!-- Created with Inkscape (http://www.inkscape.org/) -->

<svg
   xmlns:dc="http://purl.org/dc/elements/1.1/"
   xmlns:cc="http://creativecommons.org/ns#"
   xmlns:rdf="http://www.w3.org/1999/02/22-rdf-syntax-ns#"
   xmlns:svg="http://www.w3.org/2000/svg"
   xmlns="http://www.w3.org/2000/svg"
   xmlns:sodipodi="http://sodipodi.sourceforge.net/DTD/sodipodi-0.dtd"
   xmlns:inkscape="http://www.inkscape.org/namespaces/inkscape"
   width="100"
   height="100"
   viewBox="0 0 100 100"
   id="svg2"
   version="1.1"
   inkscape:version="0.91 r13725"
   sodipodi:docname="cat1template.svg">
  <defs
     id="defs4" />
  <sodipodi:namedview
     id="base"
     pagecolor="#ffffff"
     bordercolor="#666666"
     borderopacity="1.0"
     inkscape:pageopacity="0.0"
     inkscape:pageshadow="2"
     inkscape:zoom="1.4"
     inkscape:cx="196.27263"
     inkscape:cy="113.51226"
     inkscape:document-units="px"
     inkscape:current-layer="layer1"
     showgrid="false"
     units="px"
     inkscape:window-width="1366"
     inkscape:window-height="718"
     inkscape:window-x="0"
     inkscape:window-y="0"
     inkscape:window-maximized="1" />
  <metadata
     id="metadata7">
    <rdf:RDF>
      <cc:Work
         rdf:about="">
        <dc:format>image/svg+xml</dc:format>
        <dc:type
           rdf:resource="http://purl.org/dc/dcmitype/StillImage" />
        <dc:title></dc:title>
      </cc:Work>
    </rdf:RDF>
  </metadata>
  <g
     inkscape:label="Layer 1"
     inkscape:groupmode="layer"
     id="layer1"
     transform="translate(0,-952.36216)">
    <path
       style="fill:#000000"
       d="m 50.721809,1051.2231 c -0.848809,-0.4082 -1.034793,-0.7908 -0.845229,-1.7387 0.219153,-1.0957 0.04951,-1.2723 -1.72531,-1.7964 -1.082606,-0.3196 -2.292914,-0.4566 -2.689583,-0.3044 -0.396661,0.1523 -0.985889,-0.042 -1.309397,-0.4319 -0.494757,-0.5962 -0.245205,-1.0518 1.571096,-2.8681 2.934058,-2.934 3.63325,-4.7572 3.377729,-8.8075 -0.113121,-1.7931 -0.365468,-3.8638 -0.560759,-4.6016 -0.542336,-2.049 0.516842,-1.3769 2.499414,1.5858 1.280927,1.9143 2.047294,2.6025 3.098968,2.783 1.344414,0.2307 1.408612,0.3539 1.699475,3.2635 0.272511,2.7259 0.545843,10.6303 0.438738,12.6878 -0.03436,0.6605 -0.461554,0.809 -2.254651,0.7835 -1.21672,-0.017 -2.701938,-0.2671 -3.300491,-0.555 z m 17.505297,0.083 c -0.44827,-0.2611 -0.815027,-0.8603 -0.815027,-1.3314 0,-0.4713 -0.408799,-1.3516 -0.908443,-1.9563 l -0.908435,-1.0995 -0.320405,1.5452 -0.320415,1.5451 -1.753482,-1.7122 -1.753473,-1.7123 0.719934,-1.6958 c 0.458929,-1.081 0.803691,-3.7786 0.950944,-7.4408 l 0.231011,-5.7449 1.529334,0.2868 c 1.872771,0.3514 14.373207,-15.5216 4.951431,-12.6339 -3.326625,1.0197 -6.466092,0.5773 -11.663107,-0.014 -2.581532,-0.2935 -6.106956,-0.5337 -7.834295,-0.5337 -2.684732,0 -1.909383,6.1326 -2.494933,6.9842 -1.81382,2.6381 -3.408651,4.1313 -8.196245,7.6738 -5.584549,4.1322 -6.091841,4.7001 -8.827651,9.8831 -1.789319,4.2123 -5.694098,10.5298 -6.380594,8.0343 1.608484,1.4123 4.088564,-8.8196 4.534895,-9.5782 2.980708,-5.0666 3.942204,-6.0598 11.955152,-12.3492 3.927062,-3.0825 4.850602,-4.6332 4.46616,-7.4995 -0.300836,-2.2429 -0.924883,-2.7638 -4.961476,-4.1412 -6.48155,-2.2119 -14.795731,-7.2767 -19.238517,-11.7194 -1.781663,-1.7816 -2.213421,-2.5255 -2.213421,-3.8134 0,-0.8799 -0.623722,-2.93332 -1.38604,-4.56303 -0.762318,-1.62971 -1.522047,-3.64424 -1.688274,-4.47674 -0.259129,-1.29773 -0.171376,-1.51362 0.615254,-1.51362 0.504623,0 1.296826,0.41916 1.760462,0.93146 1.929773,2.13237 2.078262,0.91382 0.499194,-4.09643 -2.176421,-6.90559 -2.047708,-7.80417 0.88212,-6.15857 0.920853,0.5172 1.971598,0.94037 2.335001,0.94037 0.890317,0 2.590441,-2.33413 4.619113,-6.34165 1.561608,-3.08489 1.677795,-3.60851 1.677795,-7.56145 0,-5.5992 1.439119,-11.85409 3.364428,-14.62293 1.770381,-2.54603 5.725913,-1.28042 14.100496,4.51159 2.305368,1.59443 4.610736,3.07854 5.123042,3.29802 0.512306,0.21948 4.599093,0.56061 9.081756,0.75809 4.482663,0.19747 9.556079,0.49635 11.274256,0.66419 3.465708,0.33854 3.185342,0.48859 6.155598,-3.29445 2.515142,-3.20337 5.566739,-6.10228 6.749236,-6.4115 2.351314,-0.61489 4.701338,5.1789 5.867296,14.4653 0.83107,6.61922 2.23813,11.77518 3.533315,12.94731 0.813404,0.73612 0.886359,0.71155 1.326783,-0.44684 0.780489,-2.05284 1.706499,-1.48073 2.287729,1.4134 0.64834,3.22832 0.679416,15.47658 0.04626,18.22158 -1.406194,6.0961 -6.000228,11.2488 -13.093163,14.6854 -2.472379,1.198 -4.753434,2.178 -5.069033,2.178 -0.31559,0 -1.384038,0.2428 -2.374327,0.5395 -2.133884,0.6393 -2.326154,1.6777 -0.869063,4.6935 0.512306,1.0603 -1.891302,2.4592 -1.891302,3.396 0,1.8118 -0.625814,2.5789 -3.027249,3.7106 -3.192962,1.5046 -0.714045,2.7638 0.288951,7.7804 0.59353,2.9686 1.219506,4.4127 2.584002,5.961 1.435538,1.6288 2.977055,4.5164 2.977055,5.5765 0,1.4868 -1.793278,2.3423 -4.877376,2.3268 -1.543951,-0.01 -3.173952,-0.2278 -3.622213,-0.489 z m 4.617517,-3.7696 c -0.709924,-2.4521 -1.969929,-3.1289 -1.469175,-0.7892 0.184677,0.8629 0.546808,1.8308 0.804746,2.151 0.924721,1.1479 1.217378,0.5481 0.664429,-1.3618 z m -4.051735,-5.0114 c 0.791265,-1.4785 0.615335,-6.529 -0.238856,-6.8568 -0.995944,-0.3822 -1.966765,1.0622 -2.342919,3.4857 -0.515372,3.3205 1.323717,5.7218 2.581775,3.3711 z m 5.605155,-18.1372 c 0,-0.5869 -1.367147,-1.6394 -1.698842,-1.3077 -0.476938,0.4769 -2.587925,1.4813 -1.837124,1.4813 0.39226,0 3.535966,0.051 3.535966,-0.1736 z m 0.698598,-7.1005 c 1.280765,-0.3405 4.319656,-1.6041 6.753104,-2.8082 4.985005,-2.4666 9.127315,-5.9206 11.861402,-9.8903 1.617853,-2.3491 1.725112,-2.6919 1.22204,-3.9065 -0.390276,-0.94218 -0.419746,-1.91767 -0.100811,-3.33714 0.299809,-1.33434 0.290466,-2.35739 -0.02786,-3.05613 -0.352996,-0.77474 -0.274179,-1.75344 0.300377,-3.72985 0.823233,-2.83184 0.724533,-3.1656 -1.223321,-4.13654 -0.597913,-0.29804 -1.550363,-1.42641 -2.116578,-2.5075 -1.235252,-2.35851 -3.153996,-10.38001 -3.868014,-16.17059 -0.885754,-7.18341 -2.281073,-11.41042 -3.766517,-11.41042 -0.53182,0 -1.970615,1.62456 -3.938154,4.44659 -1.705102,2.44563 -3.571812,4.7556 -4.148235,5.13329 -0.925325,0.6063 -1.79639,0.59995 -7.439095,-0.0542 -6.020961,-0.69802 -12.698983,-0.69949 -15.863403,-0.004 -1.2517,0.2753 -1.905641,-0.10751 -6.279594,-3.67596 -4.49123,-3.66414 -6.06229,-4.59774 -6.06229,-3.60252 0,0.20941 1.467057,2.20923 3.260118,4.44404 1.793071,2.23481 3.260118,4.24703 3.260118,4.4716 0,0.76237 -3.142353,3.37651 -5.983203,4.97746 l -2.829613,1.59463 -0.915459,-1.79446 c -0.503505,-0.98695 -1.258969,-2.07954 -1.678805,-2.42797 -0.821033,-0.6814 -2.09912,-2.92208 -2.09912,-3.68007 0,-0.2549 0.576342,-0.73779 1.280756,-1.07309 0.704423,-0.33531 1.487644,-1.08026 1.740496,-1.65547 0.252862,-0.57522 0.619619,-1.04584 0.815037,-1.04584 0.670416,0 0.33422,-1.63051 -0.576171,-2.79438 -1.042936,-1.33331 -1.174237,-2.17012 -0.381943,-2.43422 0.306797,-0.10226 0.416112,-0.53082 0.247477,-0.97027 -0.462157,-1.20437 -2.947053,-1.0269 -3.79762,0.27123 -0.948311,1.44731 -2.122421,7.27234 -2.122421,10.52987 0,3.15388 0.817101,7.96215 1.492324,8.78162 0.769144,0.93345 0.125872,1.77163 -1.803189,2.34959 -1.467832,0.43978 -2.107632,1.04232 -3.425028,3.2256 -2.271478,3.76444 -2.936763,4.32753 -5.113004,4.32753 -1.024612,0 -1.862923,0.0874 -1.862923,0.19425 0,0.53661 1.928339,4.58519 2.969462,6.23444 1.637107,2.59333 1.922631,3.97422 0.983013,4.75404 -0.648819,0.53846 -1.076934,0.51893 -2.824852,-0.1289 l -2.060145,-0.76354 0.678975,1.313 c 0.373439,0.72216 1.934534,2.44123 3.469098,3.82018 3.056657,2.7467 3.741177,4.275 2.02392,4.519 -0.576342,0.082 -1.047887,0.2539 -1.047887,0.3825 0,0.7966 4.662588,3.8918 10.504255,6.9732 5.051962,2.6648 9.280926,3.7205 17.439621,4.3534 13.107393,1.0168 19.118524,1.0065 23.053694,-0.04 z m 7.944277,-44.69951 c -5.105601,-2.50197 -5.872067,-4.07546 -3.869123,-7.94291 0.576342,-1.11286 1.153874,-2.12816 1.283407,-2.25624 0.129533,-0.12807 0.821331,-1.01879 1.537324,-1.97935 0.716001,-0.96058 1.496959,-1.7465 1.735464,-1.7465 0.238505,0 0.412226,0.99551 0.386038,2.21223 -0.03247,1.50744 0.277065,2.76089 0.971532,3.93445 0.560534,0.94723 1.21929,3.1355 1.463909,4.86282 0.613099,4.3293 0.154368,4.7105 -3.508551,2.9155 z m 0.206022,-3.83501 c 0,-1.53053 -2.575237,-2.3541 -3.098355,-0.99089 -0.151104,0.39378 0.09143,1.12056 0.538972,1.61509 0.625462,0.69113 1.015612,0.79106 1.686542,0.43199 0.480058,-0.25692 0.872841,-0.73221 0.872841,-1.05619 z m -39.65733,-0.24409 c 1.022294,-0.78291 1.043054,-0.88906 0.316032,-1.61607 -1.011103,-1.0111 -3.766562,-0.97265 -5.740911,0.0801 -1.454395,0.77552 -1.491657,0.85794 -0.698597,1.54534 2.169676,1.88064 3.65851,1.87835 6.123476,-0.009 z"
       id="path3347"
       inkscape:connector-curvature="0"
       sodipodi:nodetypes="sssccssssssccscscccccccscsssssscccssssssssssssssssssssssssssssssssssscccsssssssssssscssssssssssssscssssscssssssssssssssssssscssssssccssssscsssssssscssscc" />
  </g>
</svg>
